<?xml version="1.0" standalone="no"?>
<!DOCTYPE svg PUBLIC "-//W3C//DTD SVG 20010904//EN"
 "http://www.w3.org/TR/2001/REC-SVG-20010904/DTD/svg10.dtd">
<svg version="1.0" xmlns="http://www.w3.org/2000/svg"
 width="700.000000pt" height="700.000000pt" viewBox="0 0 700.000000 700.000000"
 preserveAspectRatio="xMidYMid meet">
<metadata>
Created by potrace 1.11, written by Peter Selinger 2001-2013
</metadata>
<g transform="translate(0.000000,700.000000) scale(0.100000,-0.100000)"
fill="#000000" stroke="none">
<path d="M3441 6812 c-22 -44 -41 -85 -41 -92 0 -27 24 0 63 73 29 54 38 80
30 88 -7 7 -22 -13 -52 -69z"/>
<path d="M3526 6822 c-7 -11 71 -172 83 -172 17 0 14 11 -24 93 -35 75 -49 95
-59 79z"/>
<path d="M3311 6559 c-37 -71 -45 -109 -22 -94 12 7 81 144 81 160 0 32 -19
11 -59 -66z"/>
<path d="M3653 6573 c-8 -3 2 -30 28 -81 46 -88 54 -98 63 -83 4 6 -9 41 -29
78 -45 87 -48 91 -62 86z"/>
<path d="M3463 6530 c-12 -5 -29 -21 -39 -35 -16 -25 -16 -55 1 -190 2 -16 6
-75 10 -130 4 -55 9 -113 10 -130 1 -16 6 -73 9 -125 4 -52 9 -120 11 -150 2
-30 7 -95 10 -145 3 -49 8 -117 10 -150 3 -33 7 -96 10 -140 3 -44 8 -111 10
-150 3 -38 7 -101 10 -140 13 -225 16 -266 20 -320 3 -33 7 -105 10 -160 3
-55 8 -125 10 -157 5 -54 8 -106 20 -303 3 -49 8 -124 10 -165 14 -200 14
-226 4 -195 -25 79 -112 446 -135 575 -3 14 -18 93 -34 175 -15 83 -34 184
-40 225 -7 41 -14 84 -16 95 -3 11 -18 112 -35 225 -16 113 -32 216 -34 230
-3 24 -8 61 -20 165 -10 86 -14 117 -25 220 -12 105 -14 123 -25 192 -13 83
-90 105 -147 43 -32 -35 -37 -63 -25 -160 3 -25 9 -76 12 -115 4 -38 8 -81 10
-95 6 -46 15 -144 20 -245 6 -100 11 -177 20 -310 3 -38 7 -133 10 -211 4 -78
8 -172 10 -210 23 -420 24 -1706 1 -1869 -3 -16 -7 -57 -11 -90 -7 -80 -13
-109 -30 -158 -16 -47 -19 -86 -7 -104 5 -7 28 -15 53 -19 34 -4 54 0 88 18
72 37 82 58 101 203 8 64 5 899 -4 1060 -2 39 -7 147 -11 240 -4 94 -9 204
-11 245 -8 181 -17 580 -12 580 5 0 22 -67 69 -265 5 -22 11 -51 13 -65 3 -14
16 -81 30 -150 14 -69 28 -142 32 -164 3 -21 8 -48 10 -60 9 -42 45 -252 49
-291 3 -22 7 -56 10 -75 2 -19 7 -64 10 -100 3 -36 8 -81 10 -100 2 -19 7 -62
10 -95 3 -33 8 -71 10 -85 2 -14 6 -54 9 -90 4 -36 8 -75 10 -85 2 -11 7 -54
10 -95 11 -118 55 -416 77 -515 11 -49 22 -98 24 -108 8 -37 16 -63 38 -119
17 -46 29 -61 55 -74 45 -21 97 -11 134 26 34 35 35 51 3 165 -38 136 -80 347
-109 545 -10 71 -46 367 -51 420 -3 30 -7 75 -10 100 -2 25 -7 79 -10 120 -3
41 -8 107 -11 145 -9 128 -12 191 -29 760 -3 88 -7 232 -10 320 -3 88 -7 205
-10 260 -2 55 -7 168 -10 250 -6 164 -11 282 -21 480 -8 180 -11 259 -19 495
-9 291 -9 291 -40 317 -27 24 -72 29 -112 13z"/>
<path d="M3185 6314 c-50 -96 -50 -94 -32 -94 15 0 100 148 91 161 -11 18 -20
7 -59 -67z"/>
<path d="M3780 6322 c0 -11 65 -129 82 -150 7 -7 15 -9 20 -4 10 10 -71 153
-90 160 -7 2 -12 -1 -12 -6z"/>
<path d="M3047 6060 c-26 -46 -41 -82 -36 -86 13 -8 10 -12 62 76 42 69 49 90
27 90 -4 0 -28 -36 -53 -80z"/>
<path d="M3920 6079 c0 -13 14 -39 57 -107 25 -38 38 -51 46 -43 7 7 3 21 -15
48 -14 21 -35 55 -47 76 -22 36 -41 48 -41 26z"/>
<path d="M2931 5864 c-12 -19 -21 -37 -21 -40 0 -3 -11 -20 -24 -37 -17 -22
-22 -37 -16 -46 6 -11 20 4 52 55 54 83 62 104 44 104 -8 0 -23 -16 -35 -36z"/>
<path d="M4062 5842 c14 -36 95 -152 105 -152 20 0 17 7 -33 87 -25 40 -52 73
-61 73 -8 0 -13 -4 -11 -8z"/>
<path d="M2762 5596 c-51 -73 -61 -96 -42 -96 17 0 113 151 103 161 -6 6 -29
-18 -61 -65z"/>
<path d="M4220 5607 c0 -11 74 -124 94 -144 2 -3 10 -2 15 2 7 4 -8 34 -41 81
-50 72 -68 88 -68 61z"/>
<path d="M3944 5564 c-74 -25 -126 -114 -139 -239 -2 -27 -7 -79 -11 -115 -7
-79 -7 -791 0 -980 3 -74 8 -202 11 -285 3 -82 7 -179 10 -215 2 -36 7 -126
10 -200 4 -74 8 -151 10 -170 2 -19 6 -78 9 -130 7 -106 15 -198 21 -250 3
-19 7 -66 10 -105 10 -127 37 -314 55 -374 23 -79 88 -146 171 -177 61 -23
206 -23 284 0 129 38 227 103 260 172 22 46 17 97 -26 261 -35 136 -47 247
-27 259 6 4 29 7 49 6 33 -2 37 0 43 29 13 68 7 133 -17 162 -19 24 -33 30
-97 38 -90 13 -223 6 -271 -14 -56 -23 -62 -37 -56 -124 7 -80 26 -122 55
-124 9 0 32 -1 51 -2 32 -2 35 -5 58 -67 30 -82 64 -207 65 -240 1 -51 -3 -58
-34 -73 -102 -47 -261 -11 -326 74 -57 75 -82 247 -117 814 -2 33 -7 137 -10
230 -3 94 -8 217 -10 275 -7 173 -18 707 -17 829 2 218 51 298 151 247 95 -50
201 -264 201 -408 0 -70 57 -102 128 -72 l33 13 -7 63 c-8 67 -9 125 -5 278 5
179 2 186 -63 150 -44 -23 -46 -24 -65 -6 -31 28 -69 137 -87 254 -13 83 -71
159 -147 196 -67 32 -104 37 -153 20z"/>
<path d="M2862 5545 c-58 -25 -65 -55 -57 -254 4 -97 8 -201 10 -231 2 -30 6
-116 10 -190 3 -74 8 -169 10 -210 2 -41 7 -133 10 -205 3 -71 8 -173 10 -225
9 -168 14 -272 20 -405 3 -71 8 -161 10 -200 2 -38 7 -142 10 -230 3 -88 8
-194 11 -235 2 -41 4 -147 4 -235 1 -219 -23 -312 -87 -336 -68 -26 -120 76
-138 266 -3 39 -8 77 -10 85 -3 13 -13 115 -20 210 -11 150 -17 230 -20 260
-2 19 -7 94 -10 165 -4 72 -9 148 -10 170 -8 108 -18 597 -19 900 -2 304 -4
343 -19 373 -33 61 -94 67 -132 14 -27 -37 -27 -174 0 -452 3 -25 7 -92 10
-150 3 -58 8 -136 10 -175 2 -38 7 -122 10 -185 3 -63 8 -140 10 -170 2 -30 6
-109 10 -175 3 -66 7 -142 10 -170 2 -27 7 -102 10 -165 11 -204 30 -477 40
-560 2 -19 7 -60 10 -90 28 -283 76 -396 182 -431 72 -24 188 6 240 63 60 64
78 263 77 858 0 433 -13 888 -39 1350 -2 36 -6 119 -10 185 -4 66 -8 138 -10
160 -2 22 -6 94 -10 160 -3 66 -8 134 -10 150 -2 17 -7 75 -10 130 -11 154
-16 170 -54 183 -19 7 -36 6 -59 -3z"/>
<path d="M2603 5373 c-64 -88 -67 -93 -50 -93 21 0 122 139 110 151 -7 7 -27
-13 -60 -58z"/>
<path d="M4377 5384 c-6 -7 66 -115 94 -140 38 -34 25 7 -22 72 -50 70 -60 80
-72 68z"/>
<path d="M2435 5153 c-65 -85 -69 -93 -51 -93 14 0 116 122 116 139 0 27 -20
13 -65 -46z"/>
<path d="M4540 5156 c0 -8 6 -21 13 -28 6 -7 30 -37 52 -65 21 -29 42 -53 46
-53 22 0 13 22 -32 80 -54 70 -79 91 -79 66z"/>
<path d="M2249 4924 c-34 -43 -48 -69 -42 -75 7 -7 29 14 66 60 61 75 64 81
43 81 -8 0 -38 -30 -67 -66z"/>
<path d="M4715 4940 c-7 -12 -4 -17 64 -97 42 -51 61 -64 61 -42 0 9 -109 149
-116 149 -2 0 -6 -5 -9 -10z"/>
<path d="M4596 4914 c-19 -14 -43 -72 -40 -99 1 -11 5 -51 9 -90 3 -38 8 -81
10 -95 3 -23 11 -86 20 -170 2 -19 7 -57 10 -85 3 -27 7 -70 10 -95 5 -49 14
-130 20 -170 2 -14 7 -50 10 -80 3 -30 10 -86 15 -125 13 -98 18 -133 35 -280
8 -71 17 -143 20 -160 2 -16 7 -55 10 -85 12 -108 15 -135 19 -170 5 -33 14
-125 21 -215 2 -22 6 -93 10 -158 10 -177 38 -267 112 -357 91 -112 232 -160
461 -160 143 0 209 9 312 42 168 54 251 113 300 211 58 119 48 208 -32 287
-20 19 -78 76 -128 125 -135 132 -214 250 -273 410 -24 63 -53 169 -63 220
-14 80 -25 165 -30 227 -10 143 -25 178 -74 178 -49 0 -63 -34 -56 -128 4 -43
8 -90 11 -103 2 -13 6 -46 10 -72 3 -26 10 -71 16 -100 5 -29 12 -65 15 -82 8
-50 45 -175 76 -260 46 -123 105 -228 190 -334 81 -101 106 -155 115 -248 7
-68 -15 -103 -81 -137 -127 -64 -336 -51 -496 29 -53 27 -78 49 -105 90 -37
57 -86 176 -99 241 -3 10 -13 57 -24 104 -18 77 -30 149 -47 280 -3 25 -8 52
-10 60 -2 8 -6 47 -10 85 -3 39 -7 86 -10 105 -2 19 -7 67 -10 105 -3 39 -8
88 -10 110 -2 22 -7 87 -11 145 -3 58 -7 123 -9 145 -2 22 -6 85 -10 139 -3
54 -8 117 -10 140 -2 23 -6 86 -10 141 -13 204 -15 231 -21 279 -16 127 -102
209 -168 160z"/>
<path d="M2240 4750 c-56 -56 -86 -108 -99 -171 -12 -59 -37 -228 -46 -305 -3
-27 -8 -67 -11 -89 -2 -22 -7 -56 -9 -75 -2 -19 -16 -123 -30 -230 -42 -313
-62 -410 -83 -410 -22 0 -78 185 -98 325 -3 28 -8 59 -10 70 -2 11 -6 41 -9
66 -3 25 -8 56 -10 70 -3 13 -8 69 -11 124 -4 55 -10 104 -14 108 -23 25 -103
-40 -140 -113 -11 -22 -31 -90 -45 -152 -65 -300 -209 -759 -314 -1003 -5 -11
-19 -45 -31 -75 -76 -189 -201 -410 -276 -489 -52 -56 -45 -73 32 -73 123 0
278 142 387 355 75 146 118 282 252 802 40 156 60 226 81 284 2 8 6 12 9 10 4
-5 31 -131 39 -191 3 -20 17 -86 31 -145 53 -224 106 -271 177 -160 32 49 62
121 73 177 3 14 17 86 30 160 14 74 27 144 29 155 2 11 9 56 16 100 7 44 14
89 16 100 2 10 6 35 9 55 3 20 8 47 11 60 2 14 10 51 16 83 5 32 13 56 15 53
3 -3 7 -69 8 -148 4 -146 11 -298 20 -411 2 -34 7 -100 10 -147 3 -47 8 -110
11 -140 10 -102 13 -155 18 -330 7 -211 13 -307 27 -380 33 -178 106 -319 186
-362 33 -18 44 -20 56 -10 26 22 25 48 -4 117 -16 37 -31 77 -34 88 -2 12 -9
42 -15 67 -16 63 -37 193 -45 270 -4 36 -8 67 -10 70 -2 3 -6 43 -10 90 -4 47
-8 92 -10 100 -5 27 -19 220 -29 415 -4 72 -9 153 -11 180 -6 101 -18 311 -30
555 -2 52 -7 142 -10 200 -3 58 -7 150 -10 204 -3 55 -7 108 -11 118 -9 31
-50 22 -94 -22z"/>
<path d="M2097 4748 c-14 -18 -39 -48 -56 -67 -27 -32 -32 -51 -12 -51 8 0
114 125 119 141 8 22 -28 6 -51 -23z"/>
<path d="M4887 4724 c-8 -8 101 -138 119 -142 24 -6 15 15 -28 63 -24 26 -49
56 -56 66 -14 20 -24 23 -35 13z"/>
<path d="M1891 4516 c-57 -65 -70 -86 -51 -86 11 0 88 79 117 121 10 13 10 18
0 21 -6 3 -36 -23 -66 -56z"/>
<path d="M5070 4508 c0 -16 109 -138 122 -138 18 0 2 28 -51 89 -53 60 -71 73
-71 49z"/>
<path d="M1724 4338 c-16 -18 -43 -49 -62 -70 -20 -22 -29 -39 -22 -43 12 -8
142 124 134 137 -9 14 -20 9 -50 -24z"/>
<path d="M5257 4296 c14 -24 114 -126 124 -126 22 0 5 28 -48 82 -53 54 -95
78 -76 44z"/>
<path d="M1528 4124 c-53 -56 -82 -101 -70 -108 5 -3 31 21 58 52 72 84 76 89
65 96 -5 4 -29 -14 -53 -40z"/>
<path d="M5446 4102 c-3 -5 5 -20 17 -34 12 -15 31 -38 41 -53 37 -50 52 -64
64 -56 8 4 -4 26 -35 66 -68 87 -76 94 -87 77z"/>
<path d="M1340 3875 c-55 -81 -56 -85 -36 -85 13 0 106 131 106 150 0 26 -23
4 -70 -65z"/>
<path d="M5616 3882 c-3 -5 14 -40 39 -77 24 -38 46 -73 48 -79 3 -8 8 -8 15
-1 8 8 0 29 -28 76 -42 71 -65 96 -74 81z"/>
<path d="M1200 3640 c-26 -51 -38 -86 -32 -92 10 -10 24 9 67 95 20 40 25 61
18 68 -7 7 -23 -14 -53 -71z"/>
<path d="M5760 3639 c0 -14 71 -158 81 -164 23 -15 14 22 -22 94 -36 73 -59
100 -59 70z"/>
<path d="M1116 3462 c-5 -9 -66 -164 -66 -169 0 -2 6 -3 14 -3 7 0 19 15 26
33 7 17 21 51 31 74 11 24 19 47 19 52 0 14 -18 23 -24 13z"/>
<path d="M5880 3382 c0 -25 57 -156 69 -160 16 -5 14 5 -16 90 -26 73 -53 109
-53 70z"/>
<path d="M996 3128 c-29 -95 -31 -111 -13 -106 19 7 63 166 49 180 -8 8 -18
-12 -36 -74z"/>
<path d="M5976 3132 c-3 -5 -1 -24 5 -43 6 -19 12 -43 15 -54 11 -54 21 -79
32 -83 17 -5 15 12 -9 98 -21 77 -32 99 -43 82z"/>
<path d="M947 2933 c-3 -5 -8 -20 -11 -34 -31 -156 -30 -149 -13 -149 16 0 51
170 38 183 -5 5 -11 5 -14 0z"/>
<path d="M6046 2861 c-4 -5 -1 -33 5 -61 16 -74 17 -83 18 -102 1 -10 8 -18
16 -18 12 0 14 8 9 38 -20 130 -33 168 -48 143z"/>
<path d="M896 2651 c-4 -5 -9 -48 -12 -96 -5 -70 -4 -87 6 -83 15 5 15 4 25
111 4 50 3 77 -4 77 -5 0 -12 -4 -15 -9z"/>
<path d="M6089 2573 c-1 -10 -1 -20 -1 -23 0 -3 3 -37 7 -75 6 -74 8 -80 23
-71 9 5 8 63 -2 151 -3 32 -25 47 -27 18z"/>
<path d="M2131 2448 c-29 -12 -76 -42 -103 -67 -57 -54 -76 -100 -112 -283
-29 -143 -34 -168 -71 -388 -11 -65 -49 -217 -61 -246 -18 -44 -42 -57 -64
-35 -27 25 -53 82 -125 281 -127 348 -196 476 -291 539 -56 36 -97 46 -171 38
-62 -7 -118 -42 -142 -93 -15 -31 -12 -53 29 -203 19 -71 43 -198 54 -286 6
-50 19 -148 21 -155 1 -3 5 -21 9 -40 18 -74 129 -272 200 -355 21 -25 27 -28
36 -15 22 33 10 118 -40 295 -65 228 -77 349 -45 446 17 51 18 52 34 32 14
-16 159 -325 226 -478 83 -189 156 -335 178 -356 27 -25 123 -21 143 6 18 24
57 129 89 240 15 50 42 144 61 210 86 293 131 392 147 323 3 -13 15 -54 26
-93 12 -38 23 -79 25 -90 2 -11 11 -49 19 -85 18 -79 54 -286 61 -355 2 -27 8
-84 12 -125 12 -118 7 -308 -10 -390 -9 -44 -35 -111 -62 -163 -35 -69 -44
-97 -41 -123 8 -57 36 -80 108 -89 97 -12 197 46 220 129 14 46 17 262 5 346
-4 30 -9 73 -11 95 -10 102 -68 505 -99 685 -8 47 -18 108 -21 135 -9 67 -15
109 -31 197 -1 9 -6 48 -9 85 -4 37 -9 77 -12 88 -3 11 -6 92 -8 180 -4 137
-7 161 -22 172 -25 19 -90 15 -152 -9z"/>
<path d="M872 2288 c2 -54 7 -93 13 -93 6 0 11 39 12 93 2 76 0 92 -13 92 -12
0 -14 -15 -12 -92z"/>
<path d="M4735 2363 c-66 -16 -146 -48 -207 -83 -91 -52 -133 -63 -333 -85
-61 -7 -144 -31 -166 -48 -54 -41 -74 -136 -46 -217 24 -70 66 -72 239 -11 47
16 104 32 127 35 51 5 108 -22 137 -67 23 -35 49 -130 59 -216 4 -30 8 -61 10
-70 4 -23 14 -123 20 -208 3 -40 7 -103 10 -140 5 -70 9 -150 20 -410 5 -111
3 -158 -6 -175 -38 -72 -170 -137 -270 -132 -70 3 -103 25 -134 88 -38 78 -36
139 10 257 50 129 51 135 17 169 -26 26 -35 28 -101 28 -152 -1 -241 -42 -256
-118 -3 -18 10 -64 42 -150 3 -8 8 -24 10 -35 2 -11 8 -36 13 -55 5 -19 12
-57 15 -85 15 -122 37 -241 49 -270 30 -71 106 -101 236 -91 299 20 602 222
637 423 12 66 6 341 -13 593 -6 80 -5 433 1 500 11 110 35 211 71 295 65 147
55 236 -27 269 -37 15 -120 19 -164 9z"/>
<path d="M5785 2322 c-11 -2 -63 -18 -115 -34 -134 -41 -235 -49 -448 -36
-101 7 -146 -2 -174 -34 -30 -34 -39 -66 -40 -136 -1 -92 9 -99 105 -77 84 20
98 18 124 -21 27 -42 24 -195 -7 -369 -27 -145 -117 -407 -177 -514 -80 -142
-95 -174 -112 -242 -31 -120 -15 -297 28 -323 45 -28 110 -8 224 68 209 140
457 377 457 437 0 17 -6 20 -47 18 -63 -3 -85 5 -111 41 -100 135 -31 516 124
689 61 67 106 96 191 120 105 29 120 37 172 89 144 144 77 338 -114 330 -33
-1 -69 -4 -80 -6z"/>
<path d="M6108 2307 c-9 -24 -8 -187 1 -187 15 0 21 29 21 110 0 71 -11 109
-22 77z"/>
<path d="M3001 2263 c-237 -38 -438 -142 -514 -265 -46 -74 -46 -138 -2 -343
58 -273 74 -357 100 -520 9 -55 18 -110 20 -122 9 -55 19 -218 18 -307 -2
-121 -9 -179 -32 -262 -34 -122 10 -214 102 -214 56 0 114 36 145 90 25 41 27
54 27 150 0 93 -9 238 -20 310 -12 83 -20 219 -16 296 2 48 39 66 161 79 30 4
66 8 80 11 51 9 395 15 407 7 19 -13 31 -97 47 -338 4 -55 9 -116 11 -135 2
-19 7 -66 10 -105 14 -150 42 -289 69 -329 26 -40 73 -60 144 -60 47 1 69 6
90 21 26 20 27 24 27 114 -1 109 -7 159 -45 354 -31 156 -83 506 -95 640 -19
210 -24 268 -30 400 -13 290 -20 325 -84 397 -52 60 -132 100 -256 129 -73 17
-267 18 -364 2z m254 -188 c82 -22 122 -49 149 -104 27 -53 52 -158 61 -251 3
-36 8 -81 10 -100 3 -19 7 -77 10 -127 6 -89 5 -94 -19 -118 -14 -14 -33 -25
-43 -26 -10 0 -27 -2 -38 -4 -23 -5 -99 -14 -170 -20 -27 -2 -129 -7 -226 -11
-171 -6 -177 -6 -198 15 -11 11 -21 31 -21 44 0 12 -13 92 -29 177 -34 181
-36 303 -7 359 39 75 153 150 257 170 72 14 201 12 264 -4z"/>
<path d="M879 2100 c-2 -20 -2 -17 5 -90 8 -80 15 -102 27 -94 6 3 7 34 3 77
-9 99 -9 96 -22 109 -9 9 -12 9 -13 -2z"/>
<path d="M6096 2031 c-4 -5 -8 -22 -10 -38 -2 -15 -7 -53 -11 -84 -4 -35 -3
-59 3 -63 12 -7 19 9 27 70 3 27 8 63 11 81 4 31 -9 53 -20 34z"/>
<path d="M917 1818 c-5 -15 18 -121 34 -157 22 -51 26 -2 5 82 -20 83 -29 102
-39 75z"/>
<path d="M6041 1723 c-6 -21 -11 -41 -11 -45 0 -4 -7 -25 -14 -46 -14 -38 -7
-78 9 -53 10 17 45 143 45 163 0 32 -19 19 -29 -19z"/>
<path d="M980 1550 c0 -5 5 -22 11 -37 14 -34 23 -58 39 -101 12 -30 32 -41
31 -17 -2 30 -58 165 -68 165 -7 0 -13 -4 -13 -10z"/>
<path d="M5960 1473 c0 -10 -13 -45 -29 -78 -27 -57 -30 -75 -12 -75 10 0 71
134 71 155 0 21 -30 19 -30 -2z"/>
<path d="M1090 1286 c0 -20 74 -149 89 -154 19 -6 13 13 -30 92 -39 72 -59 93
-59 62z"/>
<path d="M5822 1180 c-18 -33 -37 -62 -43 -65 -12 -8 -12 -45 0 -45 9 0 101
149 101 163 0 4 -6 7 -13 7 -7 0 -27 -27 -45 -60z"/>
<path d="M1230 1048 c0 -18 97 -148 110 -148 19 0 10 21 -41 90 -49 67 -69 84
-69 58z"/>
<path d="M5648 938 c-32 -39 -55 -74 -52 -80 8 -12 27 5 86 75 42 51 53 79 30
76 -4 0 -33 -32 -64 -71z"/>
<path d="M1400 831 c0 -10 115 -124 130 -129 28 -10 3 31 -49 81 -55 53 -81
69 -81 48z"/>
<path d="M5483 763 c-22 -21 -52 -48 -67 -61 -41 -34 -21 -48 22 -15 74 56
121 113 94 113 -4 0 -26 -17 -49 -37z"/>
<path d="M1600 643 c1 -10 119 -100 143 -109 40 -15 12 24 -49 69 -60 43 -95
58 -94 40z"/>
<path d="M5232 568 c-49 -33 -71 -53 -64 -60 11 -11 162 85 162 102 0 19 -26
8 -98 -42z"/>
<path d="M1836 493 c-13 -14 -3 -22 73 -62 87 -45 91 -46 91 -28 0 14 -154 99
-164 90z"/>
<path d="M5000 435 c-36 -19 -69 -36 -75 -39 -7 -2 -7 -7 0 -14 12 -13 165 57
165 76 0 19 -19 14 -90 -23z"/>
<path d="M2082 358 c7 -20 159 -81 172 -68 13 13 14 12 -78 49 -87 34 -100 37
-94 19z"/>
<path d="M4800 345 c-14 -7 -51 -21 -82 -31 -32 -10 -58 -24 -58 -31 0 -7 4
-13 9 -13 16 0 155 51 166 61 18 17 -9 28 -35 14z"/>
<path d="M2340 260 c0 -9 130 -54 160 -55 8 0 16 5 17 10 2 6 -30 20 -70 32
-79 25 -107 28 -107 13z"/>
<path d="M4495 246 c-22 -7 -43 -13 -48 -14 -39 -8 -57 -15 -57 -22 0 -15 25
-17 65 -5 22 7 59 18 83 24 45 13 57 31 20 30 -13 0 -41 -6 -63 -13z"/>
<path d="M2610 191 c0 -13 10 -18 55 -26 97 -18 126 -21 131 -13 9 14 3 17
-57 28 -102 20 -129 22 -129 11z"/>
<path d="M4235 190 c-22 -5 -56 -11 -75 -15 -40 -7 -47 -12 -34 -25 12 -12
176 21 182 38 4 13 -13 14 -73 2z"/>
<path d="M2891 151 c-11 -7 -11 -10 0 -17 15 -9 15 -9 111 -18 38 -3 69 -2 73
3 9 15 -6 19 -86 27 -41 3 -76 8 -79 9 -3 2 -12 0 -19 -4z"/>
<path d="M4009 156 c-2 -2 -37 -7 -78 -10 -79 -7 -95 -12 -86 -27 8 -11 171 3
184 17 6 5 -14 26 -20 20z"/>
<path d="M3160 120 c0 -16 16 -20 101 -22 68 -2 84 0 84 11 0 12 -20 15 -92
18 -52 1 -93 -1 -93 -7z"/>
<path d="M3449 119 c-6 -4 -9 -11 -6 -16 8 -13 102 -11 102 2 0 12 -80 24 -96
14z"/>
<path d="M3568 119 c-21 -13 19 -23 82 -21 86 4 95 6 95 17 0 11 -160 14 -177
4z"/>
</g>
</svg>
