<svg viewBox="0 0 290 360" xmlns="http://www.w3.org/2000/svg" fill-rule="evenodd" clip-rule="evenodd" stroke-linejoin="round" stroke-miterlimit="1.414">
  <path d="M136.64 23.31l-3.03-17.183 40.298 15.245-32.68 27.957-3.025-17.157L17.07 53.533 27.7 113.8l-8.864 1.563-12.19-69.13L136.64 23.31zm10.714 8.935l9.156-7.833-11.29-4.27 2.134 12.103z" fill="#1fcc87"/>
  <path d="M262.08 200.84l17.184-3.03-15.245 40.297-27.958-32.68 17.155-3.025-32.58-184.764-37.672 6.643-1.562-8.863 46.535-8.205L262.08 200.84zm-8.934 10.713l7.833 9.156 4.27-11.29-12.104 2.133z" fill="#fa703f"/>
  <path d="M150.605 328.79l121.132-21.358-10.628-60.27 8.863-1.56 12.19 69.13-129.995 22.922 3.03 17.183-40.298-15.245 32.68-27.957 3.025 17.155zm-18.307 7.762l11.29 4.27-2.134-12.103-9.156 7.832z" fill="#0fb6ce"/>
  <path d="M26.52 160.16L9.34 163.19l15.245-40.298 27.957 32.68-17.156 3.025 32.58 184.765 37.673-6.643 1.562 8.863-46.537 8.205L26.52 160.16zm-3.168-8.58l12.104-2.134-7.833-9.156-4.27 11.29z" fill="#ffc31f"/>
  <g>
    <path d="M159.452 158.826L182.39 288.91l-25.35 4.47-22.934-130.066 10.393-14.706 14.952 10.218zm-15.832 6.62l20.72 117.507 7.623-1.344-20.717-117.49-4.51-3.082-3.116 4.408z" fill="#00c97c"/>
    <path d="M154.565 131.29l-10.467 15.086-14.837-10.642-11.223-63.65 25.3-4.463 11.228 63.67zm-26.102-51.907l9.024 51.175 4.43 3.176 3.142-4.53-9.022-51.157-7.575 1.336z" fill="#29b6ce"/>
    <path d="M226.137 145.76l-65.335 11.52-14.96-10.222 10.46-15.07 65.373-11.528 4.462 25.3zm-64.58-5.56l-3.152 4.542 4.447 3.04 52.86-9.32-1.337-7.576-52.818 9.313z" fill="#fdc31f"/>
    <path d="M142.66 147.403l-10.383 14.693-65.352 11.523-4.462-25.302 65.394-11.53 14.803 10.615zm-69.77 8.215l1.335 7.575 52.84-9.317 3.087-4.367-4.463-3.202-52.8 9.31z" fill="#fa703f"/>
  </g>
</svg>
