<svg viewBox="0 0 300 300" xmlns="http://www.w3.org/2000/svg" fill-rule="evenodd" clip-rule="evenodd" stroke-linejoin="round" stroke-miterlimit="1.414"><path d="M34.305 166.296c-.71.244-1.074 1.387-.453 2.252 1.37 1.904 2.915-3.1.453-2.252zm119.83-1.13c-.815-.344-1.25.82-.68 1.13.028-.58.966-.24.68-1.13zm-14.862-2.247c-.082 2.82 2.72-.13 0 0zm20.72.89c-1.38-.12-.454-.3-1.578-.68-.26 1.31.262 1.84 1.577 1.57v-.9zm13.506 2.02c-.47-.46-1.55.48-.9 1.13.9.9 1.25-.78.89-1.13zm-17.57-1.13c-1.01.17-.75.76-.46 1.58 1.04 2.8 2.64-1.97.45-1.58zm22.07 2.03c.66-1.3-1.9-.99-.91 0 .27.27.67.47.9 0zm9.9-1.79v1.12c1.2.36 1.2-1.49 0-1.13zm-61.94-1.59c-.96-.54-1.39.31-1.13 1.13.54 1.66 2.1-.58 1.12-1.13zm61.49 3.15c-.74-.38-1.38-.07-1.57.68.54.48 1.66.16 1.57-.68zm-176.14-.68c.46.7.8.81 1.35.45 2.18-1.44-3.47-3.59-1.35-.46zm35.59-3.15c-.21.2.18.64.22.67 1 1 .64-1.55-.23-.68zm202.26 1.57c-.7-.48-1.81.76-2.03 1.35 0-.01.23 0 .23 0 .37 2.06 3.25-.37 1.79-1.36zm6.53-1.35c-.46-.66-.56.46-1.13.67-.17.06-.91-.21-.91-.23-.93.96-.67 3.3.9 2.7 1.09-.42-.01-2.57 1.12-3.15zm-106.08 2.03c.25-2.08-1.55-.28 0 0zm-77.05-4.06c.35.35.97-.38.68-.68-.31-.31-1.32.03-.68.67zM46.21 162c4.1-.585-1.14-4.85 0 0zm134.017-4.052c-1.13-.37-1.337 1.203-1.12 1.57.554 1.002 2.42-1.15 1.12-1.57zm-163.08 1.8c-.22.22.152.86.23.894.992.46.61-1.74-.23-.9zm28.39-1.8c-.73.265-.176-.737-.91-.46-.27.897.793 1.22.906.46zm11.48-.46c-.49-.168-1.05.575-.447.91.643.36.71-.81.443-.91zm20.272.23c-.48.486-.09 1.23.45 1.352.47-.464.21-1.357-.45-1.35zm-14.64 7.212c.25.62 1.08 1.19 1.58.45.71-1.066-2.11-1.73-1.58-.45zm-8.11 1.346c-.33-.33-1.45.114-.67.903.52.52.97-.61.67-.91zm78.38.44c2.22-.48-1.45-3.8-1.35-1.57.03.916.48 1.763 1.34 1.573zm-50.45-4.943c.03.026.41.48.67.22.56-.56-1.52-1.06-.67-.22zm11.25 4.5c-.56-.69-.67.693-.68.675.46 1.16.89-.405.67-.672zm146.86-4.5c-.57-.695-.67.69-.68.674.46 1.15.89-.407.67-.674zm-120.5-2.03c-1.02 1.244.38 3.447 1.35 2.477.69-.69-.2-2.66-1.35-2.48zm61.26 11.706c.04.11.65 1.3 1.34.68.94-.84-1.92-2.06-1.35-.69zm-99.55 4.73c-.93 1.74 1.76.74 0 0zm58.11-.68c1.09-2.25-2.5-1.4 0 0zm-12.84 1.12c-.34 3.56 2.87.33 0 0zm-48.65-7.66c-.36.16-.36.78 0 1.13 1.36 1.37 1.36-1.76 0-1.13zm158.79 6.08c1.29-1.35-1.81-1.15 0 0zM2.99 173.27c-.445-.45-1.646.39-1.134.9.93.91 1.56-.47 1.135-.9zm81.537 0c.02 1.582.67 1.35 1.574 1.8.44-1.67.17-1.53-1.57-1.8zm86.49 3.373c-.495.067-.67 1.146-.227 1.58.953.948 1.388-1.73.228-1.58zm-21.85-.894c-.542-.55-.927.2-.67.44.577.58 1.075-.04.67-.45zm-141.22-.23c-.295-.3-1.03.32-.676.67.65.65.99-.37.68-.68zM109.08 178c-.285 1.85 1.66-.09 0 0zm65.992-1.803c-.925 1.664 1.74.947 0 0zm45.952 1.13c1.53 1.43.91-1.32 0 0zm-83.783-3.387c.79.793.91-1.11 0-.667-.26.123.01.685 0 .667zm-6.76 2.484c.96 1.57 2.05-1.49.45-1.35-.84.072-.83.74-.45 1.35zm38.96-8.33c-1.32.185.15 2.09.69 1.128.28-.52-.14-1.2-.68-1.128zm-.44 1.8c-.58-.672-1.09.212-.9.674.49 1.153 1.29-.225.91-.674zm-69.6-.454c.15.303.32 1.042.9.453.7-.69-1.34-1.343-.9-.454zm35.59-.453c-.37 2.914 2.61-.064 0 0zm71.62-.445c-.39-.408-1.46.644-.67.898.34.113 1.32-.263.67-.898zm-29.5 1.35c.47.94 1.54.53 2.49.45.18-1.5-1.88-1.156-2.48-.45zM52.32 156.39c-.033.557-.037 1.087.457 1.12.358-.332.326-1.28-.458-1.12zm-30.17 15.315c-.318-.308-1.34.018-.68.685.494.485.983-.372.68-.685zm24.322-.906c-.24 1.89 1.697-.05 0 0zm22.747.9c-.06.31-.37.38-.45.68.44-.08.44.29.67.44.31-.29.35-1.11-.23-1.13zm15.54.22c.77.81.1 1.07 2.03 1.58.03-1.58-.73-2.16-2.03-1.58zm-28.16-.45c-.24 1.89 1.69-.05 0 0zm30.18-.68c-2.69-1.06-.66 2.2 0 0zm-17.13-23.2c-.62.07-1.33.67-.9 1.12.63-.04.95-.39.89-1.13zm-34.23-8.79c.15-1.96-1.81 0 0 0zm24.54-3.61c-1.2 3.4 2.94.93 0 0zm-18.46 2.94c-.92 2.92 2.79.93 0 0zm135.81-4.97c-.17-.86-1.8-.45-.9.46.54.55.98-.03.89-.46zM2.99 134.3c-.663-.366-.663.505-.45.9.617 1.16.85-.675.45-.898zm119.61 8.11c.09-.49-.68-1.237-.907-.67.445.09.023 1.03.907.67zm-44.375-9c-.11-.56-1.586-.537-1.13.23.464.77 1.266.47 1.13-.228zm23.874 10.81v-.91c-.87-.17-.87 1.094 0 .91zm-91.9-1.806c-.4-.136-1.2.57-.45.897.83.38.85-.74.45-.89zm94.82 2.253c.58.593 1.08-.037.67-.445-.55-.547-.92.2-.68.446zm-26.35.453c.36-.72.11-1.43-.91-1.34.04.71.16 1.336.9 1.345zm4.04-11.04c.03-1.84-1.74-.06 0 0zm-64.64 9.7c-.04-2.018-2.18.112 0 0zm18.01-1.805c-.86-.056-1.13 1.236-.68 1.803.93.113 1.15-1.22.67-1.804zm118.93-14.19c.57.58 1.09-.05.68-.447-.55-.553-.94.195-.68.448zm12.39 2.703c2.11-.53-.76-1.822 0 0zm-41.21 4.722c-2.49-1.035-.88 2.27 0 0zm-75.01 10.81c1.49-.898-1.88-2.448-.91-.445.15.31.33.79.9.446zm56.08-16.885c.66.36.72-.814.45-.904-.49-.17-1.05.57-.46.91zM78 124.625c.032.035.426.484.68.22.558-.556-1.514-1.06-.68-.22zm2.933 2.48c.208.66.444 1.33 1.124 1.123 2.058-.62-2.108-4.19-1.124-1.124zm-74.78-.446c1.79-.44.752-1.97-.676-2.04v1.8c-.707.15-.92-.03-1.133.23.485.26 1.233.26 1.356.89-.39-.01-.576.18-.68.45.507.31 1.056.85 1.355 1.35.598.99 1.586 1.78 2.257.9 1.83-2.41-2.987-2.83-2.48-3.6zm13.512.21c-.186 1.13-.145 1.89 1.12 2.02.344-.81-.078-1.94-1.12-2.03zm159.242 3.83c.308.01.49-.11.68-.22-.014.23.11.57.217.22-.1-.75-1-1.34-.897 0zm9.233 4.5c.79.77 1.283-.79.902-1.13-.544-.47-1.61.42-.902 1.13zm-55.408 0c-.37-.38-.933.41-.666.68.494.49.947-.41.666-.69zm-3.82 21.4c-.7.19-.472 1.33-.463 1.35 1.17 1.71 2.28-1.87.46-1.36zm-25.682-22.53c-.81.4-.56-.15-1.36-.22-.286 1.22 1.414 1.46 1.35.21zm-68.25-2.47c-1.3-.66-.66 1.59-.9 1.12.67 1.29 1.48-.84.9-1.12zm167.57 3.59c.9-.24.022-.87.68-1.35-.98.2-.35.71-.68 1.34zm-42.79 20.27c.09-.84-.19-1.32-.9-1.35-.07.81-.06 1.55.9 1.35zm23.42-1.58c.042.98-1.55 1.29-.457 2.03.14-.65 1.542-1.55.454-2.03zm75.003 0c-.503-.22-.838.44-.448.91.556.66.733-.78.447-.91zm-2.928-.45c.33.1 1.31-.27.67-.9-.4-.41-1.46.64-.67.9zm-25.678-1.13c-.804.44-.44.29-1.35 0-.03.78 1.127 1.55 1.57 1.12-.53-.34-.336-.55-.222-1.13zm-144.15 2.49c.096-.71-.2-1.02-.9-.91.07.53.14 1.05.9.91zm53.155-.68c-1.4 3.6 3 .99 0 0zm79.51 2.02c-.51.16-.37.9-.22 1.13.953 1.55 1.6-1.54.22-1.13zm-199.33-1.8c-.576.22-.486.73-.23 1.12.99 1.52 1.625-1.66.23-1.13zm153.154-1.8c.17.19 1.56.6 1.355-.23-.13-.47-1.45-.28-1.35.23zm-54.5 3.83c-.4.07-.4 1.04-.45.9.794 2.09 2.05-1.18.45-.9zm76.347 2.25c.132.2.53.36.68 0 .2-.5-1.31-.98-.68 0zm-164.2-3.38c-.776.25-.386.87-.227 1.12 1.4 2.19 2.088-1.74.23-1.12zm206.54 1.34c-.458.49-.073 1.4.46 1.57.374-.68.646-1.52-.46-1.58zm-170.27-4.74c.324-2.44-2.11-.01 0 0zm123.654-2.26c-.466-.2-1.304.72-.67 1.13.875.58.988-.99.67-1.13zM37.455 176.2c-1.177-.807-2.786 1.36-2.705 1.577.64 1.6 4.1-.61 2.7-1.577zm176.136-25.9c.65.652 1.01-1.346 0-.898-.44.2-.24.644 0 .898zm4.06-1.124c-.17-.39-1.27-.154-.67.444.33.326.89.036.68-.444zm-129.96-1.578c.03-.557.04-1.088-.45-1.12-.05.318-.37.377-.44.667.34.104.19.712.89.453zm50.45.902c.7.018.67-.67.68-1.355-.61.095-1.21.793-.68 1.355zm-32.43-1.124c.15.358.72 1.283 1.36.453.77-1.02-1.89-1.82-1.36-.46zm74.1 5.18c2.37.074-.15-2.45 0 0zm-15.09-3.154c-.04.644.06 1.143.46 1.347.5-.34.76-1.59-.46-1.35zm-49.09 2.928c-.61-.127-.55-.18-1.34-.453v.898c.6 0 1.32.136 1.35-.445zm8.79-.222c.4-1.582-2.3-1.604-1.79.222.16.612-.19.853.67.902-.09-.004.99-.593 1.13-1.124zm-111.26-.68c.14 1.913 2.12-.063 0 0zm19.37-.68c-.91 1.746 1.77.744 0 0zm-20.5-5.398c.47.136.07 1.133.91.898.2-.667-.61-1.465-.9-.898zm65.09 48.87c1.64.808-.69-2.01 0-.447.03.06-.04.435 0 .448zm108.13 24.786c-.4-.18-.98.376-.45.898.64.64.91-.69.46-.898zm-66.45 0c-2 .29.24 2.525 0 0zm54.73.444c-.11-.88-1.77-.108-1.13.454.44.362 1.22.19 1.13-.454zm-39.63.227c.9 1.614 1.41-.752 0 0zm57.43 2.924c2-.64-1.66-3.31-.9-.89.17.53.4 1.07.9.9zm-134.69-.44s.56.32.67 0c.34-.95-1.5-.82-.67 0zm27.03.23c-.39-1.08.14-1 .23-2.02-1.54-1.1-1.87 2.2-.23 2.03zm88.97-.68c.33.52.83.74 1.13.23.69-1.16-1.93-1.47-1.13-.22zm-121.85-2.03c-.49.27-.35 1.49-.23 1.81 1.29 3.41 3.35-3.55.23-1.81zm131.76-.45c.04-1.85-1.74-.06 0 0zM30.5 226.44c1.784.8.69-1.8 0 0zm-18.47-3.83c-.47.14-.28 1.47.224 1.36.415-.32.6-1.21-.23-1.36zm5.636-3.37c-.57.34.506.57 0 .91-.69.44.465.33-.68 1.36 3.897 2.36 2.79-3.51.68-2.26zm154.51 10.58c-.323-.52-1.6-.17-1.125.68.64 1.14 1.42-.21 1.13-.68zM54.8 218.1c-.84.408-.508.643-.223 1.35.844 2.072 1.968-2.19.223-1.35zm108.122-5.403c2.008.62.494-2.53 0 0zm-11.944 1.8c.857.956 1.655-.844 1.134-1.125-.902-.485-1.347.897-1.134 1.124zm-29.054-1.347c-1.813-2.97-3.082 1.876 0 0zm-72.75 9.908c-1.85-.285.09 1.66 0 0zm93.025-7.882c-.64-.295-1.08.734-.68 1.124.64.62 1.21-.88.68-1.124zm13.51-.453c.58.068.57-.472.67-.898-.76-.23-.75.308-.68.898zm28.37-.898c-.96-.57-2.77.127-2.47 1.12.42 1.487 2.6.548 2.47-1.12zm15.54 0c-.15-.598-1.52.077-.68.454.27.1.72-.28.68-.46zm-140.54-1.577c-.42-.422-1.4.684-.68.902.17.045 1.19-.385.68-.902zm99.54 10.135c-.35-.648-2.76-.648-2.03.675.72 1.292 2.54.254 2.02-.675zm-121.18-5.63c1.02-2.053-1.87-.906 0 0zm-16.67 0c-1.09-.167-.93.916-.67 1.347 1.21 2.035 1.95-1.16.67-1.347zm14.42-2.928c-.49.476-.09 1.23.45 1.35.48-.48.08-1.227-.45-1.35zm26.35.454c1.09-1.71-3.04-1.56-1.58 0 .44.45 1.35.34 1.58 0zm51.35 15.76c-.94 1.37 1.42.68 0 0zm-33.33 2.25c-.16 2.67 2.4.05 0 0zm-23.87 1.12c-.44-.96-2.84-.1-2.03 1.12.85 1.26 2.44-.25 2.03-1.12zm52.26-.68c-.42-.71-1.47-.31-2.48-.9-.4.89-.05 3.12.45 3.37.87.43 2.76-1.26 2.03-2.48zm16.89-3.15c-.41.43-.02.56 0 1.13.82.21.48-1.27 0-1.13zm-74.78 2.7c-2.64-.7-.83 2.95 0 0zM219 216.06c-.31 1.35.95 1.15 1.8 1.35.03-1.43-1.04-1.18-1.79-1.36zm-76.13 14.19c.07-.12-.19.74.23 1.13 1.69 1.53.73-2.7-.226-1.13zM94 234.52c-.446-1.763-1.42.81 0 0zm23.877-1.12c1.953-.09-.014-2.07 0 0zm86.04 2.48c-.2.2.194.64.22.67 1.166 1.18.73-1.62-.22-.67zm-130.637.23c.788-1.41-1.637-.6 0 0zm-18.244 1.35c.485 2.36 2.32-.56 1.577-1.13-1.26-.93-1.7.57-1.577 1.13zm68.697-3.83c-.956 1.38 1.41.69 0 0zm-.675 1.806c-.466-.916-1.332.584-1.355.45.26 1.403 1.61.043 1.354-.45zm88.515-4.053c.265.113.72-.267.682-.458-.154-.59-1.523.08-.684.457zm-105.86-4.51v.897c1.05.36.786-1.16 0-.897zm115.993.897c-.095.843.18 1.324.897 1.356.195-1.1.168-1.74-.897-1.36zm-119.6 0c-.557 2.915 3.042.467 0 0zm25.003 2.26c.75.406 1.3-1.65.22-1.353-.21.06-.82 1.04-.23 1.35zm-38.06-1.58c1-.367.49-1.568 1.79-1.346-.25-3.014-2.45.26-1.79 1.346zm56.3 1.804c.09.395 1.1 1.777 2.03 1.347 2.29-1.04-2.68-4.24-2.03-1.34zM4.12 227.33c.08.063.57.48.898.226 1.39-1.054-2.51-1.47-.89-.23zm15.09-.67c-.78-.445-1.29.488-.9 1.118.85 1.386 1.597-.72.9-1.116zm21.847 2.025c-.27-.503-2.11-.308-1.13.67.53.54 1.482-.013 1.12-.67zm30.86.45c.63.19.92.728 1.8.67-.16-.63-1.48-1.6-1.808-.67zm166.22-3.374c-.67-.36-1.2.6-.67 1.12.82.83 1.2-.85.67-1.12zm-194.37 0c-1.86-.28.08 1.66 0 0zm-33.35 1.57c.98-1.79-1.87-.63 0 0zm97.3-11.71c-.064.6.316.75.9.68-.01-.61-.506-1.08-.9-.67zm67.13-22.98c-.19.28-.3.61-.238 1.13 1.01.4.81-1.18.23-1.13zM50.752 194c-.47-.205-1.577.598-.684 1.133.852.503 1.1-.943.68-1.134zm22.52-70.284c-.35.045-.427.707-.223.906.54.553 1.04-.983.22-.906zm63.973 65.325c2.17.04.503-4.33-1.13-2.47-.23.27.22.9.22.9 0 .94.058 1.57.91 1.58zm-4.066-1.12c.52.25 1.06-.25.91-.67-.23-.61-1.83.22-.91.68zm-9.69-.45c-.1.15-.28.55.23.9 1.78 1.26 1.14-2.84-.23-.89zm-37.39.9c-1.23-.08-.81.62-.23.91-1.46-.06-.17 1.6.45 1.58-.33-.99-.44-1.32-.22-2.48zm48.88 4.74c-.05 2.15 2.26-.15 0 0zm-49.11 2.7c-.2.2.19.65.22.68 1.16 1.16.62-1.52-.23-.67zm139.42 3.83c-1.81-.16-.08 1.56 0 0zm-145.28-.22c-1.58-.35-1.16 1.26-.22 1.34-.03-.55-.03-1.08.22-1.34zm33.79 2.69c.3 2.2 2.35-.04 1.57-.9-.97-1.07-1.61.7-1.58.9zm32.66-4.28c1.04-.5-.83-1.81-.69-.67.04.36-.07 1.04.68.67zm-49.78 3.16c1.21.06-.11-1.41 1.57-1.12v-.67c-.91.23-2.17.45-1.58 1.8zM79.8 179.81c2.694.235-.003-2.512 0 0zm-74.783.906c-.28 1.854 1.662-.09 0 0zM9.3 181.84c-.875-2.834-3.105 1.164 0 0zm44.602-.223c-.173-.385-1.28-.15-.68.45.326.325.893.03.68-.45zm-10.59-2.026c-2.455-.91-.914 2.16 0 0zM21.47 198.06c.13.458-.364 1.555.447 1.356.48-.213.313-1.645-.448-1.355zm145.95-18.252c2.52 1.033.87-2.312 0 0zm-67.572 2.928c-.218.23.145.865.226.902.99.466.608-1.736-.226-.902zm34.915 2.928c-.217-.603-1.505.322-.67.684.32.127.833-.222.67-.684zm75.002 31.987c1.197-.7-.96-2.08-.67-.68.054.3-.064 1.12.67.68zm-77.033-33.11c-.865-.17-.865 1.08 0 .9v-.89zm12.62 2.03c.657.29.824-.78.444-.9-.413-.12-1.106.62-.445.9zm21.842-2.7c.336.36 1.01.25.902-.45-.403-.41-.702.06-.902.46zm-165.33-1.13c-1.218-.21-.847.92-.217 1.13.327-.53.476-.41.218-1.13zm56.093.23c-.077.52.032.87.222 1.13h.68c-.14-.55-.53-.82-.91-1.12zm-13.063 2.47c2.307-.11-.168-2.59 0 0zm9.904 20.06c.548.18 1.065-.29.684-.67-.35-.34-1.49.41-.684.68zm-42.567 5.85c-.2-2.07-2-.19 0 0zm13.52-.89c-.97-.26-1.21.9-1.12 1.35.44 2.42 2.27-1.04 1.13-1.34zm12.84-1.58c.13.33-.26 1.17.23 1.13.54-.15.69-1.24-.22-1.13zm-30.17-3.15c.67-3.65-3.49-.26 0 0zm36.71 2.03c.08.08.18.36.46.23 1.19-.58-1.54-1.31-.45-.23zm19.6-2.92c-.06.59.08.96.67.9.07-.59-.07-.96-.67-.9zm-61.05 5.85c-.31.01-.49-.11-.67-.23-.31.29-.35 1.1.22 1.13.01-.46.62-.28.46-.9zm51.12 5.62c-.24.11.03.77 0 .67.58 2.25 1.72-1.42 0-.67zm-12.38.23c1.19 1.19 2.09-2.01.45-1.8-.36.05-1.15 1.1-.45 1.8zm55.63 0c-.83-.15-.99.37-.89 1.13.63-.04.96-.39.9-1.13zm11.95 0v-1.11c-1.16-.11-1.02 1.14 0 1.12zM78.24 176.9c-.95-.376-1.12.72-.9 1.124.7 1.28 1.975-.71.905-1.13zm-4.95 38.74c5.357 1.855 1.468-5.647 0 0zm104.73-18.02c-.33.046-.21.544-.223.893.834.49 1.015-1.14.226-.89zm-107.21.676c2.26.204 0-2.06 0 0zm-30.41-.46c.44.45 1.416-.09 1.126-.67-.24-.49-1.885-.09-1.124.67zm-26.124 2.03c-.327-1.376-3.5-1.286-3.15.68 1.83.554 1.84-.52 3.15-.68zm-8.79-2.25c-.42-.42-1.395.686-.68.894.178.06 1.198-.37.68-.89zm136.27.455c-.76-.01-1.503 0-1.36.9.714-.04 1.35-.15 1.36-.89zm-85.593-.9c-.363-.27-1.17.2-.67.67.57.56.9-.49.67-.67zm-4.506 4.96c-.87-.18-.87 1.08 0 .91v-.9zm-16.44 2.48c.26.4.98.87 1.35.23.69-1.22-2.49-1.94-1.35-.23zm50.23-1.57c-1.86-.28.09 1.66 0 0zm16.66 1.12c-.02-2.74-2.66-.1 0 0zm-96.4-3.6c-.25.13.02.7 0 .67.79.8.91-1.11 0-.67zm103.84 2.7c.48.47 1.52-.19 1.13-.91-.34-.61-2.07-.04-1.13.9zm-64.87-2.48c-.54-.55-.92.19-.67.45.58.58 1.09-.04.67-.45zm35.353-114c-.526.3-.29.67 0 1.13.924 1.43 1.205-1.81 0-1.13zM66.962 39.04c-.072.59.308.743.902.675-.018-.6-.512-1.08-.902-.67zm23.656-.453c-.22-1.67-2.18.287 0 0zm-65.33 2.26c-.458.21-.254.604 0 .9.934 1.06 1.1-1.41 0-.9zm-14.178-3.61c-.245.24.176.858.217.9 1.12 1.12.77-1.896-.22-.9zm147.076 0c-.29 1.85 1.66-.085 0 0zm72.75.676c1.735.92.743-1.767 0 0zm-78.38.45c2.113.063-.32-2.37 0 0zm-136.72 2.02c-.07.536-.443.934 0 1.36 1.02-.036 1.103-1.396 0-1.36zm219.827 3.835c-1.89-.244.05 1.7 0 0zm-31.978-1.577c-.104 1.38.83 1.72 1.795 2.03.657-1.38-.675-2.48-1.795-2.03zm-53.165-1.35c-.76-.45-1.327.83-.892 1.34.884 1.07 1.473-1.01.893-1.35zm19.15 1.34c-.583 3.6 2.86.15 0 0zm-21.175.9c.426 1.14 1.188-.16.902-.45-.77-.76-.86.59-.91.46zm-3.15 1.58c1.59-3.11-3.12-1.24 0 0zm73.65-11.71c-3.303-2.46-2.686 3.09 0 0zm-142.8-3.82c.308-2.35-1.913-.02 0 0zm35.368-1.34c-.4-.626-1.115-.916-1.13.226.328-.12 1.162.26 1.13-.227zm-87.848 2.03c.435-.44.24-1.38-.675-1.133-.105.71.285.923.675 1.13zm49.334 6.98c-.12-.023 1.15-.204.45-.9-.39-.387-1.05.796-.45.9zm-49.33-14.2c.13.4-.27 1.325.23 1.35.31-.284.39-1.35-.23-1.35zM4.13 30.02c-.257.236.205.89.214.916 1.11 1.962 1.455-2.412-.217-.916zM36.784 28c2.638.45-1.056-6.39-.907-2.028.07 1.773.17 1.9.91 2.02zm-20.946-.904v1.134c.906.216.906-1.357 0-1.135zm47.52 3.16c-.83-.363-1.056 1.71-.22 1.577.34-.32.64-1.17.22-1.58zm101.81 3.83c-.32-.313-1.334.013-.677.666.5.5.985-.36.676-.67zm72.97 1.577c-.01-2.53-2.343-.19 0 0zM2.096 33.63h-.902c-.172.866 1.08.866.902 0zM41.96 32.5c-1.85-.284.098 1.66 0 0zm87.39 9.46c.067.06.6.49.91.223 1.205-1.05-2.027-1.337-.907-.222zm102.714 7.44c.81 1.473 2.175-1.256.448-1.133-.742.054-.556.942-.447 1.133zm-122.3 5.403c-2.018-.203.103 1.923 0 0zm-89.417-2.705c.947.453 1.282-1.265.44-1.342-.173-.027-1.397.888-.44 1.342zM171.7 53.223c-.69-.35-1.18.63-.675 1.134.693.675 1.25-.844.675-1.134zm-4.96.902c.15 2.394 2.607-.077 0 0zm-6.753-12.836c-.222.22.14.85.227.89.988.46.617-1.74-.227-.9zM16.737 55.25c1.174 1.754 1.604-2.335 0-1.35-.458.28-.33.842 0 1.35zm50.004-.676c.3.72 1.62 1.16 2.03.227.72-1.65-2.67-1.76-2.02-.22zm79.97-.897c.9.145.9-.6.9-1.35-.72.022-.99.507-.89 1.35zm91.66 7.423c.51.5 1.51.126 1.35-.67-.15-.795-2.18-.16-1.35.67zm-32.21-2.245c-2.16.326.8 1.922 0 0zm-113.29.675s.57.312.67 0c.34-.953-1.5-.83-.67 0zm-90.1-3.38c1-1.87-2.38-1.53-1.57-.23.29.467 1.28.803 1.58.23zm11.5-2.927c-.28-.457-2.07.186-1.13 1.134.62.602 1.52-.495 1.13-1.134zm231.09 6.532c-.31-.308-1.34.014-.67.675.5.5.99-.367.68-.675zM5.25 51.202c-.418.217-.146.748 0 .893.996 1.01 1.31-1.61 0-.893zm95.724-5.18v.896c.866.182.866-1.078 0-.897zM5.02 45.335c-.39-.412-.694.06-.893.454.335.35 1.006.25.893-.46zm57.886-.902c-.44-.444-1.282-.135-1.794 0-.19 1.07 1.944.866 1.794 0zm-61.26 0c-.443.427-.067.835 0 1.356.822.21.514-1.49 0-1.36zm116.44-2.026c-.12-1.98-2.097-.01 0 0zM24.85 43.764c-.086-.64-1.876-1.002-1.577 0 .39 1.346 1.686.902 1.577 0zm113.74-1.13c-.504.078-.68.604-.228 1.13.798.906 1.392-1.297.227-1.13zm133.336 5.413c-.217 2.34 2.054.068 0 0zM211.56 50.07c1.637-.024-.285-1.946 0 0zm-47.97 0c.708-.042.608-.89.676-1.574-1.287-.05-.127 1.165-.675 1.573zm85.138-1.805c-.802-.11-1.283 1.396-.448 1.577.3-.376.602-.752.448-1.577zm-89.87.68c1.963.072-.162-2.05 0 0zM38.36 22.592v1.133c1.192.353 1.192-1.492 0-1.133zm51.577 25.224c-.104 1.922 1.858-.05 0 0zM98.5 13.363c-.17-.39-1.275-.163-.676.444.33.327.893.036.675-.444zM53.904 11.78c.326.64 1.504.445 2.248.672v-.902c-1.15.14-1.868-.956-2.248.23zm76.575.223c-.05-.997-.24-1.854-1.13-2.03.18.87.09 2.012 1.13 2.03zm83.34-.897c.47.888 1.39-.236 1.12-.68-.32-.526-1.65-.304-1.13.68zm-133.57-.454c.45-.57-.19-2.148-1.57-2.02.17-.02-.43.656-.46.67-.95.557-1.63.272-1.13 1.35.46.98 2.47.875 3.15 0zM64.94 7.05c-.25-.59-1.215.235-1.124.452.376.88 1.32 0 1.124-.453zm4.506 1.128c-.204.657-.204.684 0 1.35.82.204.512-1.486 0-1.35zm4.73-1.578c.454-.866-1.685-1.038-1.123-.226.315.47.82.788 1.127.226zm-2.932 1.8c.748-1.197-.857-1.705-1.124-.454.43.1.412.65 1.124.454zm61.713 6.305c1.314.71 2.547-1.59.68-1.795-.02.807-.558 1.083-.68 1.795zM90.39 16.513c.095.163.313.608.676.45 1.56-.672-1.854-2.476-.676-.45zm66.67-.226c2.92.095-.194-3.02 0 0zm-44.37-.454c-.044-.707-.158-1.346-.906-1.346-.095.84.48 1.015.907 1.346zm56.986-1.346c1.536-2.112-2.013-1.337 0 0zm-87.164 0c-2.067.218.2 2.498 0 0zm47.068-8.793c-1.46-1.002-2.344 1.645-.45 1.586.88-.032.97-1.228.45-1.586zm-54.96-2.48c0 .06-.035.667 0 .685 1.624.74.083-2.43 0-.69zm-30.404-.666c-.952.204-.417.725-.898 1.573.843.02.766-.88.898-1.57zm23.42.897c.45-2.733-2.23-.068 0 0zm51.355 1.582c.45-.54 1.46-1.69 1.13-2.257-.37.607-1.51 1.632-1.13 2.257zM78.9 2.997c.553.548 1.01-.567.676-.898-.354-.37-1.446.12-.676.89zm45.046 12.388c1.01.108 1.124-.68 1.124-1.578-.847.05-.78 1.02-1.124 1.578zm36.94-12.615c-.844 2.05 1.76.358 0 0zm-6.533.227c-.666.516-.308 1.133.227 1.573-.132-.463.276-1.483-.227-1.573zm-34.008 6.305c.077-2.765-3.386-3.055-2.475 0 1.137-.653 1.49.657 2.475 0zm-17.116-5.18v.905c.86.177.86-1.083 0-.906zm7.65 2.478c-.67.005-.28 1.482-.45 1.124.99 2.03 1.95-1.15.44-1.124zm-.67 2.475c-1.85-.286.08 1.66 0 0zm-40.1-2.7c2.65.12.06-2.472 0 0zm22.75 2.7c.78-.04 1.73.086 1.8-.675-.76.503-1.59-.503-1.8.675zm-82.89 5.18c.01.137.15.876.22.898 2.47.866-.42-3.816-.23-.897zM148.72 24.84c-.376.027-.812.997-.45 1.355 1.007 1.002 1.678-1.414.45-1.355zm-59.46 1.128c.83.372.857-.752.45-.897-.4-.14-1.193.58-.45.9zm51.35 2.026c-.792-1.042-2.52.544-1.8 1.804.717 1.26 2.463-.933 1.8-1.804zm-75.455-2.7c2.322.316 1.73-2.748 0-2.48-.076.013-.765 1.473-1.13 1.804 1.31-.617.72.62 1.13.675zm101.36 5.184c-.11-.498-1.67-.693-1.128.222.402.68 1.26.39 1.123-.222zm15.99-1.128c-.77-.467-.887.503-.67.902.685 1.287 1.062-.667.67-.902zm2.48-.45c-2.406-.285.03 2.15 0 0zM75.52 57.956c-.067 2.992 3.065-.136 0 0zm83.565-34.013c-.752.94-2.434 2.53-.897 3.6 2.52 1.776 3.658-3.024.897-3.6zM65.16 19.885c-.26-.593-1.995-.734-1.57.45.468 1.336 1.823.122 1.57-.45zm-36.938-.897c-.775-.077-.825 1.18-.448 1.577.91.2.775-1.214.448-1.577zm147.08 9.238c.364-1.247-1.757-1.483-1.576-.458.222 1.283 1.446.902 1.577.458zm-64.19 3.376c1.568-.086-.164-1.808 0 0zm42.344-3.376c.163-3.336-3.246.068 0 0zM116.74 26.87c.463.62 1.402.28 1.13-.457-.172-.454-1.863-.504-1.13.457zm79.73-8.11c.853.1.957.07 1.81.45.485-2.03-.893-.48-1.81-1.13v.68zm-40.988 0v.903c.87.173.87-1.083 0-.902zm-79.286-4.273v1.12c1.08.394.825-1.433 0-1.12zm-15.084 1.346c-1.038 2.04 1.767.812 0 0zm6.753-2.252c-.04-.66-1.636-.96-1.35 0 .253.86 1.396.74 1.35 0zm-66 6.99c-.186.26-.29.61-.218 1.13.83.22.898-1.11.218-1.12zm27.482 102.25c-.286 1.86 1.658-.09 0 0zm161.72-102.25c1.51-.34.472-.93 1.13-1.57-.57.29-1.945.6-1.13 1.58zm-42.343 1.58c.267-.67-.948-.97-1.124-.45.267.26.403.64 1.124.46zm-40.772-1.13c.068.07.517.32.68.23 1.782-.91-2.162-1.69-.68-.23zm48.654 8.11c-5.135.08.376 5.41 0 0zm-78.832-4.95c3.336-.25 1.097-5.65-.45-5.18-1.73.53.087 4.02.45 5.18zm23.43-1.35c-.12-.01 1.15-.19.448-.9-.395-.39-1.056.81-.45.91zm55.855-1.8c-.38.48-.03 1.69.89 1.58-.13-.69-.06-1.59-.9-1.57zM5.02 100.75c-.408-.128-1.102.624-.45.9.663.277.83-.788.45-.9zm126.593-.228c-1.138-.354-.96 1.03-.91 1.13.76 1.38 1.825-.845.91-1.13zm-71.186.45c.78-.767-1.255-1.34-.893-.45.118.294.458.897.893.45zm41.9 2.7c-.92.16-.734-1.292-.902-1.346-2.02-.675-.67 3 .902 1.346zm-74.336-7.65c.08.987.08 2.04 1.36 1.798.2-1.237-.22-1.867-1.35-1.8zm93.94 1.798c-.29.114-.21.694 0 .902.87.87 1.01-1.273 0-.902zM18.1 99.402h-1.13c-.39 1.07 1.433.816 1.13 0zm139.41-12.388c-.173.155-.5 1.247 0 1.347.5-.1.73-1.27 0-1.34zm-.45 23.19c.875.222.934-.88.676-1.12-.703-.11-.716.48-.676 1.12zM27.1 107.28c.05.054.626.508.893.227 1.048-1.034-2.06-1.587-.892-.227zm86.942-12.16c-.426.42-.413-.142-1.13 0v.67c.595.122 1.506-.57 1.13-.67zm-103.835 8.335c-.45-.458-.975.163-1.13.67.337.34 1.17.023 1.13-.67zm38.967-.232c-.466.05-.634.5-.226.902.92.92 1.39-1.015.226-.902zm114.872-1.346c2.706 1.772 1.59-2.76 0 0zM245.58 90.16c-.213-1.056-1.36.18-1.35.23.162 1.81 1.48.414 1.35-.23zm-9.913-.902c-1.808 2.543 2.556 1.455 0 0zm-15.31 3.835c3.534-.236-.61-3.042 0 0zM13.36 88.81c-.576.42.784 1.658.222 1.35 1.573.875 1.387-2.525-.222-1.35zm47.52 3.834c-.602-.326-1.563.685-.902 1.35.84.84 1.523-1.024.902-1.35zm18.244-2.706c1.152.417.898-.988.227-.906-.62.077-.29.883-.22.906zm162.85-2.706c-2.737.277-.13 2.883 0 0zM33.182 89.258c.096.172.31.603.672.453 1.314-.52-1.55-2.04-.67-.45zm200.01 3.835c.916-1.74-1.768-.744 0 0zM.464 91.86v.19c.086.023.182.014.28-.086-.107-.01-.198-.045-.28-.104zm61.767-1.25c-1.84-.205-.92 2.388.24 1.585-.11-1.07-.94-.738-.23-1.586zm84.25 18.923c-.42-.417-1.4.69-.68.902.17.05 1.2-.385.69-.902zM113.37 90.61c-.29.466-.364 1.14-1.13 1.128.82 1.572 1.21-.517 1.13-1.13zm71.398.226c-.29.534.027.42-.232 1.128.916.222 1.333-1.206.232-1.128zm42.788-.227c-.825-.08-.684.82-.897 1.35.61-.14.88-.62.89-1.36zm-2.923 20.04c.113-.94-.572-1.09-1.356-1.13-.204 1.03.49 1.18 1.356 1.12zm-52.262 8.34c.07.09.55.51.68.45 1.55-.87-1.71-2.03-.67-.45zm-103.15-2.25c-.06.59.09.97.68.89.07-.59-.07-.96-.67-.9zm-59.01 2.47c-.46.84-.02 1.88.91 1.36-.22-.54-.08-1.44-.9-1.36zm134.92-8.56v1.13c1.05.06.61-1.05 0-1.13zm35.81 7.2c.49.48 1.17-.16.91-.67-.26-.52-1.68-.11-.9.67zm-58.11-.44c-.4-.42-.69.04-.9.44.34.35 1.01.26.9-.44zm11.27-1.36c-.41.47.06 1.13.22 1.36.39.51.4.75.68.66 1.39-.41-.08-2.97-.89-2.03zm15.54 3.38c.18-1.06-.97-1.44-1.36-.68.55.12.48.88 1.36.68zm-84.02 2.7c-.2.19.19.63.23.66 1 1.01.64-1.55-.22-.67zm113.07 1.56c.81-1.41-1.78-.44 0 0zm-53.83 0c.06.03.64.04.68 0 .85-.78-2.01-.57-.67 0zm12.17-1.79c.04.02.42.48.67.22.88-.88-1.68-1.24-.67-.23zm16.89.67c.54.54 1.01-.56.68-.91-.3-.29-1.19.39-.68.9zM69 121.01c-.223 2.338 2.053.07 0 0zm92.584-2.023c-.345-.23-1.922.122-2.035.218-.06.055-.33.82 0 1.36 1.07 1.795 3.18-.81 2.03-1.577zm18.013-7.665c-.064.738.258 1.087.897 1.13.42-.45-.278-1.05-.9-1.13zM144 113.59c.182-2.48-1.803-.5 0 0zm-81.094 3.38c.05.037.626.495.907.223.875-.88-2.108-1.432-.907-.222zm29.286-5.184c-.226.222.14.86.222.902 1.17.566.55-1.673-.222-.902zm-15.316.675c1.002.09 1.587-.08 1.124-.89-.417.25-1.033.32-1.124.9zm-37.394.23c-.123-.33.262-1.16-.222-1.12-.377.35-.653 1.04.222 1.13zm136.95-.68c-.34-.08-1.174.63-.45.9.45.18.862-.78.45-.9zm-134.018 1.58c-.294-.08-1.205 1.76-2.026 1.8 1.088.32 1.573 1.6 2.475.68.662-.67.33-2.25-.45-2.47zm72.754-.68c-.34-.33-1.46.13-.897.68.77.77 1.26-.31.9-.68zm-40.096 3.16c.576.36 2.353.36 2.928 0v-1.12c-.716-.17-2.978-.19-2.928 1.12zm-46.618-5.17c-.79-.89-1.365 1.34-1.356 1.35.603 1.81 2.135-.46 1.356-1.35zm175.006.22c-.634-.35-.793.69-.675.9.612 1.17 1.192-.6.675-.9zm-194.828.23v.91c.866.17.866-1.08 0-.91zm24.096-40.32c-1.06 2.45 2.22 1.31 0 0zm103.16-.67c-.21-.46-1.537-.18-.898.45.525.52 1.078-.05.897-.45zM58.63 68.32c.4-1.197-.924-1.59-1.582-1.13-1.074.763 1.06 1.488.227 2.47.47-.543 1.13-.683 1.355-1.34zm32.432 1.34c-.404-.828-2.18-.153-1.13.903.445.426 1.488-.163 1.13-.902zM41.96 67.638c2.154.037-.28-2.398 0 0zm64.873-1.573c-.485.354-.29 1.06 0 1.342 1.464 1.47 1.722-2.606 0-1.342zm45.943.676c.15.14.68.41.91 0 .7-1.31-1.912-1-.91 0zm108.57.23c-.203.11-.534.82 0 1.13 1.116.66 1.053-1.67 0-1.13zm-39.864.68c-.417-.12-1.115.62-.453.9.66.29.82-.77.45-.89zM58.18 73.95c-.114-.026 1.15-.198.452-.9-.39-.39-1.05.788-.453.9zm50.674.446c-.258 2.31 2.017.045 0 0zm122.083-.445c.753.75 1.18-1.06.676-1.35-.712-.42-1.5.53-.676 1.36zm-223.66.45c.204.49.06 1.11.902.68 1.36-.7-1.71-2.6-.91-.68zm3.608 161.27c-.104 0-.997.81-.227 1.14.957.4.87-1.13.227-1.13zM41.29 71.25c-1.183-.037.082 2 .45 1.13-.495-.038-.486-.578-.45-1.13zm-20.043.226c.004.07-.055.645 0 .67 1.49.8-.295-2.537 0-.67zm213.97-7.88c-.35.126-.2.81 0 .896.987.416.81-1.22 0-.898zm-16.214 1.79c.018-2.308-2.117-.178 0 0zm-82.218-2.925c-.952.05-.513-1.28-1.795-.89-.322 1.39 1.554 1.99 1.795.9zm43.25 2.48c.785.73.45-.14 1.582.23.06-1.06-1.427-1.13-1.582-.22zm-16.445-2.25c.338-.53.48-.41.23-1.12-.694-.08-.917 1.08-.223 1.13zm-47.08-3.38c-.04 3.02 3.44.88 0 0zm90.55 2.26c.16-2.45-2.36.07 0 0zm-195.73.67c-.52.61.28 1.62.9.9-.57-.01-.32-.87-.9-.89zm10.59 1.13c-.223 2.04 1.93-.11 0 0zm26.13.9c.4.44 1.038.5 1.35 0 .957-1.51-2.515-1.27-1.35 0zm189.647-1.13c-1.38 1.69 1.823.87 0 0zm-166.45 1.13c-.924-.28-1.39 1.11-1.35 1.36.517 3.12 3.287-.74 1.35-1.35zm74.555-1.35c-.667.26-.186 1.1-.227.9.53 2.92 2.475-1.74.227-.9zm78.837.22c-.2 2.5 2.33-.04 0 0zM27.55 59.31c-.447-.834-1.34.476-1.35.453.314 1.406 1.67.155 1.35-.452zM167.2 85.432c.284 1.75 1.594-.858 0 0zm-77.48.457c.663.28.822-.79.45-.91-.417-.13-1.115.62-.453.9zm123.653-1.58c-.53.52.383 1.23.673 1.11.707-.28-.045-1.76-.675-1.12zm-111.27.66c.063.39.235 1.02.9.68 1.24-.64-1.082-1.8-.9-.68zm-5.63-.22c.7.1.72-.49.68-1.14-.825-.21-.23.97-.68 1.13zm117.573.66c-.063 2.12 2.366-.31 0 0zm-132.21-1.8c.24.62.11.72.676.68 2.165-.17-1.534-2.85-.677-.68zm-3.38 3.15c.947.06 1.328-.47 1.572-1.12-.73-.58-2.094-.27-1.572 1.12zm93.468-4.05c.215.34.718.55.904.46 1.64-.9-1.954-2.21-.902-.45zm-155.857 2.7c-.962-.04-.916.87-.676 1.36 1.05 2.13 2.62-1.27.68-1.36zm247.753-10.8c.647 1.68 1.254-.75 0 0zm-29.954 10.15c2.638-.77-1.152-2.46 0 0zM63.36 82.5c-.295-.01-1.183 1.042-.454 1.35.975.427 1.27-1.287.454-1.35zm111.943-.675c-.394-.386-1.05.802-.444.906-.13-.02 1.14-.2.44-.9zM41.513 83.85c-.817-.44-1.04.653-.903.912.735 1.37 1.35-.657.902-.91zm14.418-5.398c-1.85-.29.09 1.655 0 0zm63.07 5.4c-.33.05-.2.547-.22.91.83.48 1.01-1.156.23-.91zm-18.92-3.822c1.38-.88-1.8-1.95-.9-.454.18.286.28.848.91.454zM2.77 77.772c-.198.204.196.644.228.68 1.16 1.16.73-1.622-.227-.68zm231.318-2.474c.793-1.41-1.628-.594 0 0zM57.278 80.03c-.178.865 1.078.865.9 0h-.9zm32.888-1.578c.403.2 1.006-.036 1.124-.23.893-1.47-2.525-.472-1.124.23zm3.372 8.105c.096.816.372 1.437 1.13 1.577.19-1.088-.282-1.518-1.13-1.577zm59.238-.67c-.585-.074-.576.466-.666.896 1.49.01.176-.1.666-.897zm68.706-.46c.975.97 2.22-1.75.68-1.798-.652-.03-1.088 1.39-.68 1.79zm-97.756 1.13c-.585-.06-.975.09-.902.675.39.408.884-.063.902-.675zm-90.776-5.18c-2.833-.817-.354 2.782 0 0zm220.51 1.354c-1.704.53.853 2.62-.222 3.16 1.424.3.467-1.1.902-1.35 1.618 2.15 1.328-2.42-.68-1.8zM141.068 92.2c-.458.222-.263.64 0 .898 1.01 1.01 1.1-1.437 0-.898zm50.675 36.484c1.573.956 2.004-2.665.232-2.022-.612.218-.64 1.768-.232 2.022zm91.905-4.057c.122-.453.68-.435.218-.906-.77-.16-.875.87-.218.91zm-24.33-2.697c-.414-.136-1.112.617-.455.893.667.286.825-.775.454-.893zm-77.48 4.732c.41.408 1.452-.35 1.348-.906-.154-.887-2.51-.266-1.347.908zm-56.08 15.987c.606-.28 1.29-.51 1.57-1.13-.89.16-.9.16-1.803 0-.072.52.046.86.232 1.13zm151.35-20.5c-.44-.01-.282-.62-.898-.47v.9c.512.06.847-.06.897-.45zm-160.816 3.15c.06.04.866.05.902 0 .92-1.14-2.24-.79-.902 0zm138.07-1.59c.15.31.318 1.04.902.46.69-.69-1.337-1.35-.902-.47zm-6.31-2.25c.713.12.88-.49 1.36 0 .227-1.14-1.49-1.12-1.36 0zm-51.576-4.97c-.794.28-.458.67-.227 1.35.99 2.93 2.08-2 .22-1.36zm23.878 4.06c-.06 1.08.743 2.85 1.573 2.69 1.282-.23 1.07-4.16-.676-4.06-.61.04-.85.41-.89 1.36zm-19.822 0c4.075-1.51-.93-3.67 0 0zm45.94-.23c.153.34-.033 1.18.915.68 1.572-.85-1.786-2.81-.916-.68zm-23.195.23c-.272 1.84 1.655-.1 0 0zm9.913-1.81c-1.228-2.1-2.12.69 0 0zM90.832 135.89c-.648-.376-2.003.38-1.12 1.356.703.757 1.642-1.066 1.12-1.356zm36.27 2.47c.327.255 1.306.277 1.13-.68-.09-.462-2.072-.035-1.13.68zm157.217-1.114c.06-.522-.06-.852-.46-.91-.05.33-.37.38-.45.678.3.068.43.318.9.232zm-86.95 2.474c-.08-.525-.15-1.065-.9-.91-.11.716.56.64.89.91zm45.49.898c-.26-.87 1.48-.807-.45-1.577-.6.41-.34 1.38.44 1.58zm-26.57-8.784c-.37-1.038.06-1.455 0-2.702-2.85-.213-2.55 2.86 0 2.702zm13.73 3.6c-.31 2.374 2.11-.06 0 0zM69.21 139.27c.73.725 1.713-.26 1.35-.91-.335-.613-2.193.062-1.35.91zm198.89-7.22c.163.37.32.797.897.462 1.133-.67-1.47-1.696-.898-.463zm-37.39-.898c.045.072.448.603.675.458 1.724-1.11-1.784-2.18-.674-.458zm-6.31-.45c1.636-.017-.295-1.944 0 0zm43.7 4.058c1.037 1.577 2.615-1.428.67-1.35-.807.03-.71 1.29-.67 1.35zm-49.334-.902c-.66-.345-.88.797-.893.448.12 2.833 2.313.28.89-.448zm-37.386-.68c1.125.036.87.444 1.8.897-.027-.98-1.622-2.692-1.8-.897zm116.895-8.78c-.957 1.378 1.42.684 0 0zm-256.09-18.02c.95.952 2.27-.59 1.802-1.346-.5-.81-2.802.35-1.804 1.346zm176.133-3.835c-.798-.036-1.12 1.084-.675 1.582.8.04 1.11-1.07.674-1.582zM59.53 105.93c-.093-.55.41-.49.224-1.13-.965.03-1.047.92-.222 1.13zm152.935-2.48c-2.12.58.83 1.81 0 0zm28.825 2.472c-.195.203.195.638.23.68 1.157 1.16.726-1.637-.23-.68zm3.83.68c.666.276.825-.785.453-.907-.423-.136-1.116.616-.454.906zm-28.375-.907c.84.213 1.03 1.07 2.023 1.13.79-2.05-1.196-2.47-2.02-1.13zm32.433-4.05c.64.64.907-.695.45-.9-.393-.185-.97.373-.447.9zm-40.087 14.19c.13 2.16 2.16.132 0 0zM86.56 96.25c-.77-.36-1.07 1.504-.227 1.35.51-.027.11-.956.23-1.35zm69.155 3.154c-.18.182-.48.848 0 1.795.3.6 1.01 1.12 1.795.9 2.362-.65-.376-4.15-1.795-2.7zm70.946 3.14c.18.736.15 1.792 1.12 1.13 1.14-.78-.65-2.348-.9-2.244-.53.227-.14 1.455-.22 1.115zm28.6 1.36c3.11.124-.03-3.13 0 0zm-63.29 2.476c-.31-.308-1.18.18-.68.68.66.653.99-.372.68-.68zm54.73-7.882c-.28-.58-.46-.703-1.12-.454-.17.694.23.83.23 1.36 1.34.195 1.04-1.17 2.03-.23.32-.3.32-1.275 0-1.574-.77-.1-.68.676-1.13.898zm14.64 14.64c.31-2.366-2.11.064 0 0zm-11.49-3.825v1.126c1.09.39.82-1.45 0-1.13zm1.35 2.023c.28.62.54.463.91.23 1.08-.697-1.71-2.142-.9-.23zm-74.77-4.274c.56.557 1.3-.51.9-.91-.37-.37-1.74.07-.9.91zm121.63 86.714c.2.068.61-.037.8-.26v-.484c-.03-.05-.07-.096-.12-.155-.4-.403-1.47.648-.67.898zm-71.17-79.74c.05.023.65.033.68 0 .91-.888-2.07-.656-.67 0zm-27.48-1.123v.91c.88.17.88-1.082 0-.91zm24.11.227c.07.037.85.05.9 0 .89-.884-2.33-.725-.89 0zm-28.82-8.104c-.4-.18-.97.372-.45.897.64.638.91-.694.46-.898zm-85.59.45c-1.16-.822-2.24 1.594-2.03 2.025.86 1.77 3.37-1.08 2.02-2.02zm92.12 1.35c-.08-.794-.62-.558-.23-1.35-.98.026-.64 1.386.23 1.35zm60.36 2.252c1.04.902 1.13-1.8 0-1.13-.45.273-.37.795 0 1.13zm-89.86-.906c-.16.293.16.583.22.68 1.63 2.514.92-2.79-.22-.68zm82.66.225c-.72-.39-1.53.408-.9 1.13.78.874 1.34-.885.9-1.13zm20.96 54.288c-.07.512.04.848.44.902.06-.322.37-.38.45-.675-.3-.074-.43-.323-.89-.228zM78.23 180.94c.793-1.406-1.632-.6 0 0zm-18.47-.676c.217 1.342.076 1.42 1.123 1.13 1.407-.395-1.576-3.917-1.123-1.13zm213.303-.22c.15-.772-.743.05-.906-.912-.086-.544.113-1.51-1.124-1.12-.273 2.044 1.672 3.82 2.03 2.03zm-105.865 1.798c.39-.01-.244 1.156.676 1.13.178-.65-.1-1.973-.675-1.13zm99.552-3.15c1.01.997.648-1.555-.218-.68-.21.2.185.64.217.68zM72.593 143.31c1.804.984.69-1.912 0 0zm115.547 40.78c1.255.228 1.11.635 2.026 1.805 1.278-1.732-.603-2.212-.902-3.613-.79.19-1.124.83-1.124 1.81zm70.275-7.206c.1.145.317.616.68.45 1.45-.68-1.827-2.222-.68-.45zm-61.94-4.963v.91c.866.18.866-1.07 0-.9zm88.968 11.49c.122.67 2.47 1.16 3.38.91.25-2.42-3.63-2.22-3.38-.9zm-18.017-11.7c-.087 1.9 1.717.1 0 0zm-82.436 1.35c.222.39.503 1.08 1.124.45.906-.9-1.922-1.88-1.124-.45zm83.56 2.03c.87-1.68-1.664-.84 0 0zm-45.042 2.03c1.297 3.47 4.116-2.43 1.125-2.25-.807.06-1.533 1.19-1.125 2.26zm28.824 10.14c-3.577.7.87 3.26 0 0zm-144.37 3.16c-.676 2.33 2.497.58 0 0zm-17.343.9c.84.18.76-.58 1.12-.89-.58-.55-1.5-.18-1.13.9zm171.63-19.13c-.32-.97-.78-.75-.46-2.03h-.9c.22 1.09.37 1.4.45 2.27.39.01.69-.06.9-.23zm.22 17.8c.23-.22.21-1.16-.45-1.13-.05.56-.06 1.09.45 1.13zm-157.22 1.8c-1.07 1.91 1.96.66 0 0zM270.58 194c.884.444 1.16-.83.898-1.356-.322-.644-1.918.852-.898 1.355zm-29.956-.45c1.264 2.03 1.822-1.967 0-.906-.72.426-.073.784 0 .907zm-25.9-8.113c-.526.336-.322.92 0 1.355 1.428 2 1.718-2.456 0-1.355zm23.874-1.346c.49-.95-1.42-1.26-.907-.22.1.19.56.9.91.23zm-19.826-.22c.516 2.16 1.894-.72 0 0zm54.732 1.8c-3.09-.32-.218 2.56 0 0zm-2.475.23c.21-3.22-3.01-.01 0 0zm-47.98.9c.39.4 1.19-.06.9-.67-.13-.27-1.69-.11-.9.68zM.46 237.22v1.732c.945.566 1.12-2.177 0-1.733zm195.12-53.808c.186.486.254 1.247 1.124.68 1.763-1.14-1.976-2.818-1.124-.68zm30.85-31.98c.163-1.964-1.805 0 0 0zm-39.86-.904c-.703-.163-1.374.94-.676 1.582.816.73 1.68-1.35.675-1.59zm98.426-1.124c.3.553 1.36.884 1.804.45 1.79-1.79-2.892-2.467-1.804-.45zm-1.346 5.86c.82.364.857-.756.45-.905-.405-.14-1.198.57-.45.9zm11.26-1.128c.643-.317 1.14.612 1.345 0 0-.385-1.464-.915-1.346 0zm-17.12-1.128c1.015-1.763-1.84-.608 0 0zm18.697.897c.892-1.03-.195-1.355-1.13-1.573-.67.83.89.95 1.13 1.58zm-23.425-4.052c.01.076-.055.647 0 .678 2.026 1.16-.33-2.74 0-.67zm-165.552-6.075c-.204.204.186.64.222.67 1.006 1.002.648-1.54-.222-.67zm165.32-.68c-.947 1.378 1.415.69 0 0zm4.062 1.35c-1.387.816.965 1.247 0 0zm-75.23 2.48c-.008.09-.063.87 0 .906 1.75.97.123-2.86 0-.9zm-84.02-.444c.987.45.892-1.47 0-1.13-.35.14-.37.96 0 1.13zm48.43 1.58c.204.235.716.367.902 0 .558-1.147-1.85-1.09-.902 0zm124.78 18.47c.313.114 1.4-.4.676-1.124-.444-.45-1.487.84-.676 1.124zm-100.23.68c.326.05.38.367.675.453.72-.734-.33-1.246-.676-.453zm38.745 1.346c-.57-.91-2.32.803-1.81 1.578.78 1.166 2.254-.847 1.81-1.577zm65.09-72.3c.7 1.205.78-.757 0-.46-.25.11-.024.42 0 .46zm-62.167 72.52c.64.646.907-.696.453-.9-.392-.176-.972.377-.45.9zm59.47-6.75c-1.003 2.465 2.447.837 0 0zm-170.96 6.53c.598 1.283 1.387-.648 1.124-.893-.757-.77-1.26.6-1.124.893zm161.04-7.887c.78-.353 1.144-.62 1.58.227.624-1.16-.658-.58-1.347-1.123-.075.305-.316.436-.23.898zm-21.846 1.582c.653.885 1.11-.65.675-.9-.64-.367-1.05.395-.68.902zm12.837-3.61c.24.66 1.26 1.52 1.81.457.92-1.8-2.67-2.906-1.8-.454zm-26.8-3.15c-.97 2.674 2.76.78 0 0zm35.14 2.706c.32.55 1.27.53 1.35.45 1.84-1.72-2.76-2.95-1.35-.45zm-64.86-3.37c-.95 1.37 1.41.68 0 0zm-43.25 5.85c.72-1.2-1.84-1.35-1.12-.21.27.4.76.84 1.13.22zm-88.51-45.05c.4.26 1.13-.24 1.13-.22.85-1.57-2.58-.68-1.12.22zM196.7 31.38c.33.11 1.31-.26.67-.898-.407-.408-1.463.64-.67.898zM86.558 35.433c-1.052 1.545 1.518.793 0 0zm89.42-3.83c.255.335 1.628.435 1.578-.67-.054-1.352-2.697-.844-1.577.67zm71.404 2.248c.648.36.712-.8.444-.89-.494-.17-1.047.57-.444.9zM77.774 46.02c.068.064.58.472.906.218.775-.616-1.9-1.214-.906-.217zm217.804-10.143c1.233-1.745 2.384 1.17 2.928-1.35-.852-.12-1.06-.318-1.582.22-.435-2.12-2.728-.334-1.346 1.13zm-2.697-.898c-.21 2.24 1.86.08 0 0zm-66.9-2.93c-.19.26-.29.59-.22 1.12 1.01.4.81-1.19.22-1.12zm35.37-5.41c-1.85.04.12 2 0 0zm-31.54-1.35c-4.54 1.61 1.73 4.13 0 0zm11.72-.91c-.4-.18-.97.37-.45.9.64.64.9-.69.46-.91zm-38.74 3.6c1.73.92.74-1.77 0 0zm13.28 2.71c3.18-.08-.37-3.62 0 0zm42.12-.69c.41-.62 0-1.99-1.13-1.79-.1 1.08.73 1.22 1.13 1.79zm-21.85 7.21c2.69 2.27 1.75-2.9 0 0zm-10.8 5.4v.9c1.05.36.79-1.16 0-.9zm40.55.45c.05.02.64.03.67 0 .91-.89-2.08-.67-.67 0zm9.24 1.12c.31-2.35-1.91-.03 0 0zm-144.83.22c-.31-.3-1.18.39-.67.9.72.73.97-.61.67-.91zm163.74-2.25c.79.07.95-1.06.68-1.35-.6.1-1.12.87-.67 1.35zm-16.21 3.15c.58.55.91-.5.68-.67-.35-.29-1.17.2-.68.67zm4.29-2.02h-1.13c-.19 1.36 1.1.8 1.13 0zm-34.47-1.8c.29 1.74 1.76 1.38 1.81.45.03-.55-2.14-2.59-1.8-.46zm-13.51-3.38c1.29 1.9 2.21-2.22.46-1.8-.8.2-.64 1.53-.46 1.8zm27.26-.9v-.9c-.86-.17-.86 1.07 0 .9zm22.98 1.57c.65.62 1.63-.83 1.13-1.35-.75.08-.89.75-1.13 1.35zm5.18-13.74c.34.33 1.13.38 1.36 0 .92-1.54-2.69-1.34-1.36 0zM98.06 38.56c-.49-.17-1.04.577-.45.9.66.36.72-.8.45-.89zm130.42 1.797c.286.93.86-.2.68-.45-.58-.74-.73.3-.68.45zM116.29 35.2c-.398-.14-1.196.573-.453.908.83.367.85-.762.45-.907zM250.074 5.25c2.498.29.395-1.89 0 0zm-57.877.222c1.006 1.495 1.536-1.365.222-1.13-.75.146-.56.64-.23 1.13zm94.597 0c-.313 3.26 4.41-.698.226-.68.6.702-.267 1.065-.226.68zM146.92 7.28c-.032-.707.535-1.283 0-1.808-.716-.195-.694.35-1.124.453-.15.825.49.86.453 1.577-.63.19-1.55.816-.91 1.573.57-.177.94-.553 1.35-.897.44.222.35.997 1.12.897.31-.29.22-.98.22-1.573-.71-.118-.92.53-1.13-.222zm86.492 14.863c-2.855.08.35 3.34 0 0zm43.695-11.268c.386.32.998-.073.68-.67-.222-.432-1.446.04-.68.67zM217.874 2.1c-.607.385-.027 1.074 0 1.114.263.544.848 1.075 1.573.685 1.08-.59-.44-2.53-1.573-1.8zm-65.098 6.078c-.172 2.52 2.488-.136 0 0zM187.33.794h-.763c-.24.19-.372.49-.453.847.798.12.992-.38 1.215-.84zm96.7 0h-1.43c-.022.054-.053.104-.085.177.847.44 1.32.21 1.514-.17zm-281.48.4c.104.067 1.02.067 1.123 0 .25-.17.268-.296.15-.4H2.14c-.008.095.106.226.41.4zM231.154 2.77c.267.113.73-.263.684-.453-.14-.585-1.524.077-.685.453zm17.35.898c.26.19.6.3 1.125.23.12-.915-.93-.715-1.13-.23zm5.182-1.57c.258.255.69.46.897 0 .458-1-1.545-.65-.897 0zm-50.458 8.106c2.025-.032-.25-2.312 0 0zm72.3 9.233c.988.98 1.505-1.02.907-1.356-.703-.38-1.397.87-.907 1.36zm-73.42 1.346c2.293.027-.114-2.307 0 0zm15.306-10.13v1.128c.99.28 1.42-1.53 0-1.12zm29.508 9.912c.272.762 2.054.64 1.582-.68-.376-.308-1.25.26-1.582.68zm-75.673.45c.31.52.99.742 1.35.23.87-1.273-2.3-1.804-1.35-.23zm43.24 2.474c.62 1.4 2.44-.25 2.7-1.13.18-.63-1.45-.82-1.8-.67-.61.24-1.18 1.18-.91 1.8zm22.07-3.61c-.57.35.35 1.72.67 1.13-.51-.09.03-1.24-.68-1.13zm-51.81-8.1c-1.4.3-2.69 1.77-2.26 3.15 1.26-.97 2.49-.63 2.25-3.15zm112.84 3.6c.59.06.58-.47.67-.9-.76-.23-.74.31-.67.9zm-61.95-2.93c-1.48 1.7 1.53 1.73 0 0zm-41.22 3.83c1.16 1.15.72-1.63-.23-.68-.2.2.19.64.22.68zm-176.8.67c-.9-.59-.85 1.22-.91 1.12.75 1.33 1.6-.66.9-1.12zm262.39 0c.49 1.15 1.28-.23.9-.68-.58-.68-1.1.21-.91.67zm14.64 58.56c4.21-1.14-.22-3.8 0 0zm-284.25.9v.9c1.05.35.79-1.16 0-.9zm207.9 2.03c.11.19.29.55.68.45 2.03-.57-2.06-2.89-.68-.45zm-166.2-2.7c-.79-.49-1.02.69-.91.9.73 1.29 1.59-.47.9-.9zM230.71 78c.866 3.612 3.672-1.18 0 0zM88.59 76.425c.044.132.266.503.452.45 1.02-.314-.934-1.737-.453-.45zm141.44 3.15c-.307.16-.076.53 0 .676.92 1.51 1.238-1.27 0-.67zm61.043.227c4.52.458-.232-3.957 0 0zm-38.968-8.33c.653 1.254 1.124-.4.68-.68-.666-.423-.834.375-.68.68zm-99.773 6.748c-.89.196-.88 1.103-.676 1.583 1.27 2.978 3.944-2.284.676-1.582zm0-9c-.01.733-.966.534-.902 1.345.462-.15 1.568-.815.902-1.346zm138.292 3.154c1.935.045-.005-1.9 0 0zm-9.238-.453c-.653-.31-1.06.75-.67 1.13.67.66 1.26-.84.67-1.13zM175.983 95.57c.685.693 1.21-.59.902-.893-.367-.372-1.745.05-.902.893zm37.608-19.595c.17-1.972-1.8-.005 0 0zm65.54 17.12c.84.81 1.37-.893.92-1.13-.62-.316-1.44.595-.91 1.13zm-20.26-.45c2.79-1.576-1.51-2.977 0 0zM187.02 70.12c.643.05 1.233.02 1.124-.677-.772-.17-.985.21-1.12.677zm75.68 18.913c-.536.317-.223 1.436 0 1.577 1.4.888 1.504-2.466 0-1.577zm17.794-.223c.018.028.653.526.893.223.952-1.134-1.722-1.048-.893-.223zm-27.93 6.083c.775.032 1.047-.453.897-1.35-.71.027-.98.507-.89 1.35zm-88.968-1.128c.603-.154-.163 1.06.45.91.23-.892-.128-1.01.67-.453.458-.86-1.02-.9-1.12-.456zm127.93-.898c.753-1.78-2.247-.526 0 0zm-6.082-11.04c.394.23 1.083.103 1.124 0 .884-1.978-2.348-.695-1.124 0zm-79.734-.672c-.758 1.763 1.39 1.876 2.705 1.577.185-.633-.318-.588-.232-1.128-1.405.254-1.523.05-2.474-.448zm7.437.902c-.517-2.167-1.89.716 0 0zM20.562 80.03c-.566.022-.775.83-.45 1.346.83 1.305 1.805-1.41.45-1.346zm278.293 5.217v-.916c-.113.34-.09.7 0 .92zm-15.67-.268c2.163.03-.276-2.4 0 0zm-21.39-.22c-.013.97.02 1.8.232 2.02 2.32 2.45 3.93-2.28 2.46-3.83-1.367-1.47-2.682 1.35-2.69 1.81zm-83.34-34.47c1.893.09-.042-1.85 0 0zm109.467 2.93c1.206 1.21.744-1.87-.23-.9-.24.22.18.85.23.89zm-37.163-.9c-.78.09-.51.75-.46 1.35.41 4.25 2.23-1.58.45-1.35zm-160.83 6.3c.35-.33.78-1.16-.22-1.13.12.32-.27 1.17.22 1.12zm35.81-2.48c.45.18.85-.79.44-.9-.33-.1-1.17.62-.45.9zm-71.85.9c-2.02-.2.1 1.91 0 0zM187 51.85c.42-2.574-3.29-.725 0 0zm19.365 4.283c.625 1.26 1.033-.46.68-.677-.703-.43-.803.426-.68.68zm-77.93-4.054c2.846.84.77-2.17 0 0zm-105.85-.45c.675 1.69 1.554.11 1.79 0 2.64-1.39-3.064-3.22-1.79 0zM268.1 48.71c-.947-.186-1.233.802-.9 1.13 1.077 1.06 1.716-.958.9-1.13zm-71.85-1.12c.82-.18 1.136-1.124.22-1.356-.258.763-.45.36-.22 1.352zm89.42 1.12c.502 1.554 3.2-.694 1.57-1.347-.76-.313-1.635 1.18-1.57 1.346zm-176.362-1.79c.707.702 1.273-.53.902-.898-.363-.375-1.605.196-.902.898zm28.38 1.794c-.645-.054-.582 1.27-.672.91.507 1.91 2.135-.76.67-.91zm121.85 12.846c1.01.393.812-1.193.232-1.13-.195.263-.3.608-.23 1.13zm16.672 6.077c.136 1.89 1.83.086 1.13-.675-.768-.82-1.112.916-1.13.675zm-44.148-1.355c-.24 1.895 1.7-.045 0 0zm-17.338.68c.938.934 1.523-.775.898-1.124-.658-.363-1.415.612-.898 1.124zm-27.708 1.804c.39.4.888-.073.893-.675-.58-.06-.97.08-.9.68zm11.486-9.913c.652.88 1.106-.653.675-.898-.653-.37-1.056.38-.675.898zM267.2 68.09c-1.855-.285.085 1.66 0 0zm-22.302-6.53c-.4.915-1.963.964-2.03 2.03-.07 1.22 1.686 2.384 2.488 1.563.984-.98-.45-2.357-.458-3.594zm31.983-1.578c.1.15.32.61.69.448 1.28-.593-1.55-1.835-.68-.448zm6.31-.68c.6.59.97-.617.68-.893-.26-.27-1.29.28-.68.89zm-99.33 10.36c.27-2.315-2-.035 0 0zm87.86-6.072c-.25 2.302 2.02.027 0 0zm26.12-.685c.36.43.83.517 1.03.113l-.01-.534c-.38.1-.84.113-1.02.42zm-8.55.222c.02 2.285 2.15.154 0 0zm-2.71 123.665c.47.843 1.44-.154 1.13-.675-.29-.494-1.68-.335-1.13.675zM74.85 281.39c-.594-.31-1.156.348-.675.906.684.807 1.074-.69.675-.907zm22.523.23c-.372-.376-1.61.195-.902.898.7.707 1.28-.53.91-.897zm-44.824 1.582c-.56.33-.28.862 0 1.116 1.4 1.27 1.07-1.777 0-1.116zm-.68-.684c2.83.136-.02-2.77 0 0zm126.35-1.35c-.62-.486-.94.13-1.58-.223-.28 1.732 1.54 1.505 1.58.222zm-12.39 4.727c-.15-1.038.09-2.493-1.13-2.475-.9.703-.56 3 1.12 2.475zM39.71 281.39c-2.126-.803-.612 2.17 0 0zm194.832 4.954c-1.813-.154-.086 1.568 0 0zm-33.115-1.35c-.11 2.41 2.414-.12 0 0zm62.163-3.15c.38-.355.653-1.035-.222-1.13.124.326-.262 1.17.223 1.13zm-78.157 2.705c.182 1.46 1.383.2.907-.45-.526-.7-.852.92-.907.45zm11.264.89c.39.38.944.19.903-.23-.06-.55-1.618-.47-.902.22zm49.33.9c.09.2.72.63.893.46.834-.84-1.323-1.31-.893-.46zm33.098-2.25c-.944 1.37 1.744.5 0 0zm-165.54-13.3c-1.363-.77-1.3.77-1.132.23-1.03 3.14 2.95.81 1.133-.23zm-56.762 4.51c-.585-1.08-2.58-.19-1.568 1.13.91 1.18 2.12-.14 1.568-1.13zm59.233 2.25c.63 1.96 2.2-.44 1.36-1.36-1.05-1.15-1.465 1-1.36 1.35zm-77.247-4.51c-.25.23.18.85.22.89 1.2 1.21.74-1.87-.22-.9zm-25.23-3.39c-.98 2.35 2.59.64 0 0zm132.66-1.12c-.1 0-1 .8-.23 1.12.96.4.88-1.13.23-1.12zm-67.79 17.58c.16.04.26.18.23.44.8-.18 1.97-.89 1.34-1.8-.63.34-1.17.78-1.58 1.35zm76.8-9.02c.11.42.19 1.28 1.13.67 1.19-.78-1.52-2.12-1.13-.68zm-66.9 1.13c.04.05.61.5.89.22 1.03-1.03-2.17-1.5-.89-.23zm-42.8-.9c2.3.85.38-2.76 0 0zm105.86-2.49c-.5 2.86 2.3.06 0 0zm77.93 4.73c-.25 1.89 1.69-.06 0 0zm-137.62.9c-1.05 1.55 1.58.86 0 0zm29.06-4.73c.69.09.71-.48.67-1.13-.7-.11-.72.48-.68 1.13zm-44.15-.91c.04.02.64.04.67 0 .9-.89-2.08-.66-.67 0zM20.1 292.18c-.67-.502-.656.567-.68.454.37 1.62 1.14-.1.68-.45zm169.515 6.98h.525c-.14-.06-.33-.06-.52 0zm81.443 0c-.02-.07-.03-.135-.05-.216-.2.065-.36.147-.49.22h.53zm-36.76-.44c.02.05-.05.405 0 .44h.58c-.02-.42-1.1-1.585-.59-.44zm-153.16-.225c-.54-.163-.81.276-.75.666h1.12c.05-.27-.03-.56-.38-.66zm27.69 0c.82.222.48-1.26 0-1.13-.42.423-.02.563 0 1.13zm-37.38-1.35c-.96 1.373 1.4.68 0 0zm145.49 2.016h.617c.25-.46.09-1.59-.62-1.12-.41.28-.33.79 0 1.12zm-208.12-.44c-.293-.23-.9.06-.81.44h.85c.056-.17.047-.37-.04-.44zM78 292.89c-.362.19-.34.926 0 1.125 1.11.63 1.056-1.69 0-1.13zm17.35-1.35c-.252.22.205.87.22.9 1.31 2.06 1.332-2.29-.22-.9zm70.72 6.3c.163.5.426 1.52 1.35.908 1.964-1.3-2.428-4.247-1.35-.906zm31.08-2.25c0-.23.182-.265.223-.44-.938.157.313-.87-.67-.917-.187.55-.39 1.3.448 1.36zm43.7 1.12c1.96.016-.272-2.3 0 0zm3.377.46c.984.96 1.043-1.487 0-.902-.462.26-.235.672 0 .903zm-114.418-.46c.47.786 1.46-.106 1.12-.664-.26-.412-1.69-.25-1.13.666zm-68.93-7.874c.88-.89-2.34-.73-.9 0 .06.034.85.04.9 0zm-2.48 1.126v.897c1.04.36.78-1.17 0-.9zm29.5-1.13c.57.58 1.07-.046.67-.454-.56-.553-.94.2-.68.454zm-39.4-.226c-.8.13-.6.76-.23 1.126.83.84 1.46-1.33.22-1.13zm-30.19-1.353c-.4-.384-1.05.8-.45.908-.12-.01 1.15-.19.45-.9zm204.74 0c-.44-.434-1.73.3-1.13.908.79.79 1.54-.48 1.13-.9zm-201.36-2.03c-.6-.062-1.13 1.384-1.13 1.35-.03.446.2 2.056 1.35 1.584 1.09-.45 1.03-2.806-.22-2.932zm112.4 11.04c.17 1.866 1.67-.93 0 0zm84.46-4.06c-1.84-.27.1 1.66 0 0zm-70.72 4.965c.34.313 1.3-.032 1.35-.68-.5.177-1.22.132-1.35.68zM18.54 295.59c-.39-2.417-3.27 1-1.36 2.025 0-1.06 1.55-.857 1.36-2.026zM.53 294.455c-.027.01-.04.037-.06.05v1.007c.02.023.033.046.06.073 1.074.947 1.17-1.74 0-1.13zm121.167-24.552c-.852-.735-1.668.58-1.35 1.128.734 1.28 1.95-.62 1.35-1.12zM50.523 296.26c.635.31 2.117 1.515 2.706.445-1.4.562-2.44-1.36-2.71-.444zm31.085-48.426h-.902c.73.947-.498 1.373.454 2.244.734-.65.1-1.283.448-2.244zm-20.492 4.954c-.412-.032-.897.685-.453 1.124.71.72 1.387-1.033.453-1.124zm-19.15 2.706c1.32-2-3.22-1.636-1.573 0 .435.426 1.278.453 1.573 0zm79.276-7.438c-.58.58.19.956.68 1.13-.073-.523-.227-.98-.68-1.13zm51.36-.675c-.068 1.45-1.06 2.37-2.03 1.13.27 2.02 3.077.11 2.03-1.13zm77.028 2.03c-.625-.51.526-1.4-.67-1.35-.055.6.48 1.75.67 1.36zm-135.812-2.03c-.504 2.68 2.17.01 0 0zm-52.484 8.57c1.246.46.566-1.68-.218-.9-.222.22.127.87.218.91zm84.235 6.54c.4 2.21 1.91-.81 0 0zm50.45.67c-.34-.34-1.49.41-.68.68.55.18 1.05-.29.67-.67zM2.1 255.95c.335-.988-1.755-.85-.907 0 .308.3.784.35.907 0zm182.435 7.652c.073-.526-.03-.866-.222-1.12-1.165-.036-.385 1.04.222 1.12zm-37.39.67c.712.704 1.274-.53.907-.896-.376-.377-1.61.2-.907.897zm-70.72-7.43c-.212.183.224.664.224.673.93 1.8 1.13-1.822-.23-.67zm-39.42-14.64c1.152-2.192-1.985-.792 0 0zm238.31 3.827c-.063.32-.38.38-.452.67.3.08.426.32.893.22.068-.51-.05-.85-.44-.9zm-43.254.89c1.74-.47-1.12-1.8-1.57-.45.64.6.93-.4 1.81-.23-.01.29-.28.31-.22.67zm-122.07-1.57v.89c.87.18.87-1.08 0-.9zm-92.34-1.81c1.26 1.26 1.42-2.01 0-1.13-.37.24-.35.78 0 1.13zm115.77 28.84c.91.47 1.41-1.58.22-1.36-.49.09-.81 1.04-.22 1.35zM6.83 241.75c-1.4-.36-3.72-.36-3.83 1.13-.06.78 1.812 2.085 2.252 2.02.844-.117 1.415-1.812 1.578-3.15zm226.583 20.947c.93-1.727-1.75-.744 0 0zm-63.73-18.013c-.08-.136.78.444.898.217.57-1.01-1.47-1.21-.89-.21zm16.67 2.02c-.714-1.023-2.4-.07-2.03.9.66 1.735 2.3-.504 2.03-.9zm49.32-1.803c-.45.35-.4 1.12 0 1.59 1.21 1.4 1.897-2.99 0-1.58zm-144.6 1.13c-.17-.38-1.272-.15-.68.46.33.32.895.03.68-.45zm181.087 1.35c.222.65 1.147 1.17 1.578.46.635-1.05-1.93-1.5-1.577-.45zm-257-1.35c.307.47.82.68 1.355.46 2.307-.99-2.765-2.59-1.356-.45zm165.773-.67c.372-2.8-2.475.04 0 0zm-88.065-6.99c-.703-.1-1.007.2-.907.9.76.17.83-.37.91-.89zm-70.72 20.51c-.842-.36-.78 1.51-.9.9.434 2.13 2.17-.36.9-.89zm61.264 4.05c-.467.04-.64.5-.23.9.924.93 1.39-1.01.23-.89zm6.532 2.02c.168.06 1.192-.38.675-.9-.43-.41-1.4.7-.68.91zm47.072-3.38c-.558.18-.594.78-.23 1.36 1.127 1.76 2.202-1.97.23-1.36zm-84.467-.44c-1.87-1.38-1.02 1.53 0 0zm28.15 3.83c.03.04.42.48.67.22.87-.86-1.68-1.22-.67-.22zm-69.82-2.02c-.51.11-.44.69-.23.9.76.76 1.37-1.16.23-.89zm7.87 0c-.67-.33-.71.61-.67.67.59 1.23 1.28-.37.67-.67zm218.7 8.56c-2.63-.33-.25 2.06 0 0zm-46.63 0c-.87 1.91 1.73 1.05 0 0zm-48.43-.45c.02.67.08 1.27.9 1.13.06-.73-.27-1.09-.91-1.13zm-102.24-2.49c-.24.24.17.86.22.91 1.38 1.39.94-2.07-.23-.9zm10.35-3.15c-.08 1.9 1.85-.04 0 0zm49.55-.23c-1.54.4-.66-.22-.9-.89-2.34.84.24 3.42.89.9zm-28.59-1.58c-.4-1.07.36-1.11 0-2.03-1.56-.22-.57 1.75 0 2.03zm-62.62-4.06c.04.04.42.49.67.23.86-.86-1.68-1.22-.68-.23zm168.7-2.69c.13.9.13.67 0 1.58 1.06.08 1.78-1.92 0-1.57zm-71.4.91c-.92-.33-1.55.84-.91 1.58.95 1.08 1.75-1.27.91-1.57zm-41 2.47c1.72-3.11-2.53-1.87 0 0zm157.67-.23c-.74 1.33 1.08 1.52 1.58 1.36-.54-.43-.55-1.39-1.57-1.35zm-121.4.91c-1.08-.31-1.62 1.91-1.57 2.03.89 1.81 3.32-1.53 1.57-2.02zM82.28 260c-.29 1.858 1.66-.09 0 0zm-24.56-2.93c-.49.33-.59 1.06-.68 1.815.9.1 1.62-1.48.68-1.81zm82.22-.9c.2.394.81 1.38 1.81.684 2.35-1.666-3.42-3.715-1.803-.682zM31.38 258.2c-.57-.044-.79.48-.45.9.56.69 1.24-.843.45-.897zm126.13-2.473c.53.045 1.14.104 1.58-.46-.37-.86-1.553-.343-1.576.46zm2.48-.46c-.56.087-.46.617-.22.9.758.9 1.366-1.07.228-.897zm9.69 2.027c.72 1.286 1.58-.477.89-.9-.78-.483-1.01.695-.897.9zm-84.02-1.13c.43-.095.13-1.772.9-1.572-1.27.08-.43-1.96-1.8-1.8-.475 1.56-.933 3.78.9 3.38zm194.6-28.827c1.363 1.436 1.25-1.978 0-1.116-.395.27-.51.58 0 1.12zm-4.946-1.116c.69.03 1.006-.79.666-1.13-.7-.1-.72.48-.66 1.14zm-50.462-6.08c.1.1 1.21-.01.9-.68-.236-.5-1.668-.08-.906.68zm-188.07 4.73c-.448 2.74 2.23.06 0 0zm234.014 6.08c.895.52 1.01-1.37.23-1.13-.485-.03-.095.81-.23 1.13zm-19.6-2.7c3.185-1.91-1.815-3.43 0 0zm14.42 1.35c3.125-.66-.72-2.65 0 0zm-83.336-7.66c-.4.14-.79 1.07-.23 1.58 1.05.97 1.67-2.06.23-1.57zm53.38-1.57c-.362.47-.51 2.17.68 1.8.558-.66-.212-1.45-.68-1.79zm20.5.9c.28.72 1.087.88 1.34 0-.15-.16-1.25-.5-1.34 0zm24.55.24c.55-.28.27-1.61-.67-1.13.2.39-.01 1.21.67 1.13zm-65.77.22c-.54.33-.28.7 0 1.13 1.1 1.7 1.58-2.08 0-1.12zm25.9.68c-.28 1.86 1.66-.09 0 0zm35.36 8.11c.75.14 1.38 2.09 2.26.68-.32-.91-1.75.15-1.58-1.35-.61-.15-.44.47-.68.68zm-203.15-6.1c.51.52 1.15.32 1.13-.22-.05-.85-1.91-.55-1.13.23zm175 12.39c.63.71 1.48-1.37.23-1.13-.54.12-.65.64-.22 1.14zm-132.88-.23c-.83.17-1.06.53-.68 1.59 1.09 3.06 3.44-2.14.67-1.59zm14.19-.22c-1.86-.28.09 1.67 0 0zm4.28 2.93c.33 1.5 1.77-.16.9-.67-.8-.47-.82 1.05-.91.67zm152.04-7.66c.32.33.89.04.67-.45-.18-.38-1.28-.14-.67.45zm-67.13 10.82c.15-.75-.38-.83-.9-.9.03.57.32.88.89.9zM296.94 292c.63 1.13 1.55-.56.89-.904-.88-.46-.99.743-.9.906zm-73.66-51.13c.27.12.72-.263.68-.453-.15-.58-1.52.08-.68.46zm-20.49-4.954c.92-2.3-2.21-.753 0 0zm85.58-3.83c.94 2.973 3.68-.064 0 0zm-72.3.226c.89.29.67-.53.68-1.125-.64-.03-.66.55-.68 1.13zm-65.1.905c.08.12.4.53.68.45 2.25-.66-2.05-2.57-.68-.45zm133.12 1.13c-.287-.32-1.066-.15-1.36-.46-.065 1.22.9.92 1.36.45zm-151.366-1.59c-.35-.35-1.38.41-.89.9.663.67 1.28-.52.894-.91zm28.61 10.81c.83.47 1.01-1.15.23-.9-.34.04-.22.55-.23.9zm75.68-43.48c-.65-.324-.71.61-.67.678.59 1.23 1.28-.37.67-.67zm-100.45 3.16c-.28-.016-.31-.293-.673-.225-.13.74.16 1.042.23 1.572 1.18-.83.81-1.87 1.35-3.37-1.64-.82-1.79 1.177-.9 2.03zm101.58-2.255c1.107.352 1.075-1.12.68-1.565-.897-.16-.643.85-.68 1.56zm13.064-2.48c.136.915.9 1.96 1.586 1.132.83-.99-1.87-3.25-1.586-1.13zm-1.79 6.76c.43.442 1.38.24 1.13-.678-.71-.1-.93.29-1.13.68zm-165.78-.674c-1.05.17-1.02 1.89-.9 2.26 1.26 3.707 3.88-2.734.91-2.254zm120.5 13.748c-3.88 1.946 3.27 4.34 1.36.68-.69-.17-.43.613-1.13.445.19-.63-.314-.58-.224-1.12zM91.29 195.58c.04.02.657.024.67 0 .862-1.127-1.934-.697-.67 0zm147.974 11.26c.082.064.517.31.684.232 1.886-1.03-2.425-1.76-.684-.232zm18.017-13.516c-.26.47-.62.884-.89 1.35.67.046 1.38-1.006.9-1.35zm-81.07 3.386c2.64-.045.11-2.588 0 0zm72.98.666c.85 1.596 2.12-1.187.67-1.346-.63-.073-.85 1.01-.67 1.346zm31.08-.897c-2.06-.87-.81 2.17 0 0zm15.99 1.34c2.21.08-.38-2.5 0 0zm-17.56 6.76c-.95 1.38 1.41.68 0 0zm-9.68 11.71c-1.27.8-.41.39 0 1.13 1.09 1.92 1.77-2.26 0-1.13zm12.62.45c-1.74-.92-.74 1.76 0 0zm-56.76.45v.89c.87.18.87-1.08 0-.9zm-116 .89c.29.31 1.11.35 1.13-.22-.29-.31-1.1-.35-1.13.22zm2.49-.9c-.51-.51-1.45.63-.68.9.3.1 1.12-.45.68-.9zm166-.9c.51.5 1.08-.04.9-.45-.15-.36-1.49-.15-.89.45zm-14.19-5.86c2.38 3.4 3.32-4.28.23-2.48-.65.38-.73 1.75-.22 2.48zm31.31 5.18c.32.32.89.02.68-.45-.17-.39-1.28-.15-.67.45zm-51.12-7.66c.08.12.62.58 1.12 0 1.17-1.36-2.75-2.39-1.12 0zm29.42 4.97c.48.12 1.11-.16 1.89-.02-.41-1.59-1.18-2.58-1.8-2.48-1.32.23.27 2.42-.08 2.5zm9.33-4.3c.06.27.11.71.45.67 1.66-.19-.89-2.49-.44-.67zm-39.42 6.53c-.12-1.05-.67-1.14-.68-1.81-.4.64-.84 2.02.68 1.8zm-34.7-.45c.76-.69-.27-2.31-.9-1.57.17.19-.26 1.74.9 1.57zM91.75 240.84c-.954 1.38 1.408.68 0 0zm135.6 36.72c-1.7.744.78 1.546 0 0zm-13.52 0c-2.25.2.29 2.61 0 0zm-53.61-2.93c-.14.54-.33 1.03-.22 1.806 1.35.08.92-1.602.22-1.806zm68.24 1.575c1.364 3.544 3.34-1.374 0 0zm52.257 4.5c-.213 2.756 2.55-.014 0 0zm14.19-.22c.84.977 1.16-1.298.22-1.126-.26.05-.62.67-.23 1.12zm-37.4-.904c.81-1.42-1.78-.44 0 0zm-50.91-2.93c-.53.37-.35 1.06 0 1.58 1.53 2.22 2.125-2.99 0-1.59zm19.15-3.37c2.425.12-.25-2.55 0 0zm-8.11.22c-.45-1.77-1.415.81 0 0zm66.67-1.12c.214.35.39.74.9.45 1.78-.98-2.19-2.58-.9-.44zm-229.29.91c-.113.21.205.38.23.44 1.075 3.09.984-2.73-.23-.44zM56.37 244c.765-.06 1.545-.11 2.03-.445-.268-1.473-2.04-.838-2.03.444zm119.607 28.388c-.476-.54-1.056.584-.906.902.6 1.264 1.35-.404.91-.902zm76.802 16.893c-.16-.74-.11-1.7-.9-1.8-.44.61-.44 2.27.89 1.81zm-4.51-17.8c.12.14 3.19.39 3.37 0 .84-1.65-2.58-1.99-3.15-3.37-.07 1.24-1.25 2.28-.23 3.37zm-41.21 9.47c-.47.22-.27.64 0 .9 1.01 1.02 1.08-1.43 0-.9zm66.21 6.53c.72.73 1.01-1.14.21-1.13-.35.02-.58.78-.22 1.13zm-5.41 4.06c2.26-.03.01-2.27 0 0zM250.3 285c-.514-.6-.98.716-.894.9.39.927 1.32-.4.89-.9zm-11.71 5.634c-.51-1.845-1.42.798 0 0zm45.5.227c.303.3.77.34.897 0 .344-.99-1.755-.86-.898 0zm-154.74.9c.824.83 2.442-.51 2.48-.68.633-2.51-4.73-1.57-2.48.68zm147.75-7.65c.87.86 1.89-1.41 1.13-1.8-.735-.38-1.946.99-1.13 1.8zm15.325.9c-2.315-.25-.044 2.02 0 0zm-8.565-.89c-.4.57-1.034.91-1.13 1.8.427-.05.504.25.912.23.757-.48-.49-1.23 0-1.35 1.414.94 2.017-2.56-.23-2.03-.418.8.176.75.448 1.36zm-24.096-.89c.3-.3.343-1.1-.23-1.13-.06.32-.365.38-.447.67.32.06.38.38.675.47zm36.03 2.02c.833.82 1.522-.55 1.132-.9-.56-.47-1.48.56-1.136.9zm-1.796-1.12c.56.56 1.3-.5.905-.89-.37-.38-1.745.05-.902.9zm-131.77-9.24c.39.38.765-.21.688-.44-.146-.41-1.587-.46-.685.44zm85.155-23.42c-.3-.51-1.655-.06-.916.68.283.27 1.226-.14.92-.68zm-180.19 1.13c-.955 1.37 1.407.68 0 0zm218.93 1.58c.03.03.41.48.675.22.557-.55-1.515-1.06-.676-.21zM265.17 192.9c-.3-.48-1.767-.114-1.12.897.626 1 1.5-.3 1.12-.896zm-53.603 64.64c1.01.693 2.583-1.414 1.582-2.928-1.47-.22-2.35 2.41-1.59 2.93zm-124.1-2.928c.058.037.86.046.902 0 1.07-1.074-2.49-.95-.91 0zm31.085.907c.716.71.965-.62.67-.91-.303-.3-1.187.39-.67.9zm135.36-8.57c.82 1.35 2.61-.91 1.576-1.56-1.196-.77-1.708 1.36-1.577 1.57zm-11.256 9.02c.436.75 1.845.28 1.573-.45-.25-.67-2.19-.57-1.58.45zm43.242-7.43c1.392 2.89 2.797-1.73 1.35-2.48-1.273-.66-2.08.96-1.35 2.48zm-8.33-3.61c.652.67 1.042-.93.22-.9-.216.01-.515.62-.22.9zm1.563 4.51c.14.14 1.07.53 1.13 0-.33-.26-.95-.79-1.13 0zm-.44.23c-1.88.18.26 2.32 0 0zm-26.59 1.13c-.2.2.22.65.23.67.95 2.13 1.19-2.09-.22-.68zm-128.15 9.9c.08-.83-.03-1.46-.22-2.02-.99.04-1.37 2.43.23 2.02zm139.43 4.73c1.25 2.17 3.85-1.96 1.8-2.71-1.09-.4-2.28 1.86-1.79 2.71zm32.43-3.61c.86.99 1.38-1.01.24-.9-.47.04-.48.61-.23.9zm-3.6 4.06c-.51-1.86-1.42.8 0 0zm-54.06-3.84c1.23 1.81 3.2-1.95 1.36-2.03-.82-.03-1.74 1.46-1.35 2.03zm-95.94 3.15c-.49-.04-.72.19-.68.69.56-.3.71.89.9.22-.32-.05-.2-.55-.21-.91zm-1.35 2.71c-.08-.69.6-1.14-.22-1.35-.08.65-.2.53-.67 1.12.3.07.43.32.9.22zm50.91-10.36c-.39-.18-.97.38-.44.9.64.64.91-.69.45-.9zm55.65.23h-.92c-.17.86 1.08.86.92 0zm38.28-1.59c.45.07.05 1 .67.9.71-.54-.44-1.96-.67-.91zM270.82 258c.22.37.748 1.015 1.128.23.44-.906-1.69-1.17-1.12-.23zm26.12 2.02c.467.47 1.06-.74.68-1.114-.38-.39-1.365.43-.68 1.12zM285 268.13c.113.104-.04.24.226.22 2.07-.19-1.765-1.766-.224-.22zm-6.76-8.336c.054.026.64.03.68 0 .843-.785-2.017-.58-.68 0z" fill="#3A5766" fill-rule="nonzero"/></svg>