<?xml version="1.0" encoding="UTF-8" standalone="no"?>
<!DOCTYPE svg PUBLIC "-//W3C//DTD SVG 1.1//EN" "http://www.w3.org/Graphics/SVG/1.1/DTD/svg11.dtd">
<svg width="100%" height="100%" viewBox="0 0 5000 5000" version="1.1" xmlns="http://www.w3.org/2000/svg" xmlns:xlink="http://www.w3.org/1999/xlink" xml:space="preserve" style="fill-rule:evenodd;clip-rule:evenodd;stroke-linecap:round;stroke-linejoin:round;stroke-miterlimit:1.5;">
    <g transform="matrix(1,0,0,1,646.175,262.039)">
        <g>
            <g transform="matrix(0.946966,0.321334,-0.321334,0.946966,1335.44,-38.505)">
                <text x="784.371px" y="4026.47px" style="font-family:'Pacifico-Regular', 'Pacifico';font-size:350px;fill:rgb(0,170,255);">W</text>
            </g>
            <g transform="matrix(0.977412,0.211342,-0.211342,0.977412,904.927,-154.514)">
                <text x="1175.32px" y="4156.2px" style="font-family:'Pacifico-Regular', 'Pacifico';font-size:350px;fill:rgb(0,170,255);">a</text>
            </g>
            <g transform="matrix(0.987769,0.155925,-0.155925,0.987769,669.973,-157.024)">
                <text x="1335.88px" y="4191.97px" style="font-family:'Pacifico-Regular', 'Pacifico';font-size:350px;fill:rgb(0,170,255);">t</text>
            </g>
            <g transform="matrix(0.994619,0.103598,-0.103598,0.994619,444.558,-129.781)">
                <text x="1471.64px" y="4214.74px" style="font-family:'Pacifico-Regular', 'Pacifico';font-size:350px;fill:rgb(0,170,255);">e</text>
            </g>
            <g transform="matrix(0.998501,0.0547317,-0.0547317,0.998501,233.946,-81.6944)">
                <path d="M1766.69,4115.22C1771.82,4115.22 1776.2,4117.03 1779.81,4120.64C1783.43,4124.26 1785.24,4128.75 1785.24,4134.12C1785.24,4137.15 1784.54,4140.42 1783.14,4143.92C1779.4,4152.55 1774.15,4159.79 1767.39,4165.62C1760.62,4171.45 1753.15,4174.37 1744.99,4174.37C1738.45,4174.37 1732.91,4172.04 1728.36,4167.37C1723.81,4162.7 1721.54,4156.4 1721.54,4148.47C1721.54,4144.04 1721.77,4139.25 1722.24,4134.12C1722.7,4130.39 1722.94,4127.82 1722.94,4126.42C1722.94,4124.55 1722.53,4123.15 1721.71,4122.22C1720.9,4121.29 1719.9,4120.82 1718.74,4120.82C1715.47,4120.82 1711.04,4124.73 1705.44,4132.54C1699.84,4140.36 1694.24,4150.69 1688.64,4163.52C1683.04,4176.35 1678.49,4189.89 1674.99,4204.12C1672.42,4215.32 1669.51,4222.79 1666.24,4226.52C1662.97,4230.25 1657.61,4232.12 1650.14,4232.12C1641.27,4232.12 1635.03,4227.45 1631.41,4218.12C1627.8,4208.79 1625.99,4193.85 1625.99,4173.32C1625.99,4142.99 1630.31,4114.17 1638.94,4086.87C1641.04,4080.1 1644.48,4075.14 1649.26,4071.99C1654.05,4068.84 1660.76,4067.27 1669.39,4067.27C1674.06,4067.27 1677.32,4067.85 1679.19,4069.02C1681.06,4070.19 1681.99,4072.4 1681.99,4075.67C1681.99,4079.4 1680.24,4087.8 1676.74,4100.87C1674.4,4110.2 1672.54,4118.37 1671.14,4125.37C1669.74,4132.37 1668.57,4141 1667.64,4151.27C1675.34,4131.2 1683.97,4114.87 1693.54,4102.27C1703.11,4089.67 1712.44,4080.69 1721.54,4075.32C1730.64,4069.95 1738.92,4067.27 1746.39,4067.27C1753.15,4067.27 1758.35,4069.19 1761.96,4073.04C1765.58,4076.89 1767.39,4082.55 1767.39,4090.02C1767.39,4094.45 1766.11,4102.85 1763.54,4115.22L1766.69,4115.22Z" style="fill:rgb(0,170,255);"/>
            </g>
            <g transform="matrix(0.998335,-0.0576894,0.0576894,0.998335,-241.712,115.2)">
                <text x="1874.38px" y="4244px" style="font-family:'Pacifico-Regular', 'Pacifico';font-size:350px;fill:rgb(0,170,255);">P</text>
            </g>
            <g transform="matrix(0.990455,-0.137835,0.137835,0.990455,-562.555,334.633)">
                <text x="2134.91px" y="4229.2px" style="font-family:'Pacifico-Regular', 'Pacifico';font-size:350px;fill:rgb(0,170,255);">r</text>
            </g>
            <g transform="matrix(0.980493,-0.196556,0.196556,0.980493,-782.616,532.74)">
                <text x="2292.62px" y="4209.18px" style="font-family:'Pacifico-Regular', 'Pacifico';font-size:350px;fill:rgb(0,170,255);">o</text>
            </g>
            <g transform="matrix(0.974133,-0.225976,0.225976,0.974133,-880.752,661.155)">
                <text x="2447.56px" y="4177.72px" style="font-family:'Pacifico-Regular', 'Pacifico';font-size:350px;fill:rgb(0,170,255);">j</text>
            </g>
            <g transform="matrix(0.955687,-0.294384,0.294384,0.955687,-1112,930.347)">
                <text x="2534.3px" y="4158.87px" style="font-family:'Pacifico-Regular', 'Pacifico';font-size:350px;fill:rgb(0,170,255);">e</text>
            </g>
            <g transform="matrix(0.934724,-0.355375,0.355375,0.934724,-1290.1,1216.52)">
                <text x="2666.41px" y="4120.01px" style="font-family:'Pacifico-Regular', 'Pacifico';font-size:350px;fill:rgb(0,170,255);">c</text>
            </g>
            <g transform="matrix(0.910685,-0.413101,0.413101,0.910685,-1434.22,1516.07)">
                <path d="M2863.53,3944.98C2863.06,3956.65 2862.83,3965.75 2862.83,3972.28C2862.83,3989.08 2863.7,4002.21 2865.45,4011.66C2867.2,4021.11 2870.12,4027.87 2874.2,4031.96C2878.28,4036.04 2883.94,4038.08 2891.18,4038.08C2894.91,4038.08 2899.34,4036.91 2904.48,4034.58C2909.61,4032.25 2914.28,4029.21 2918.48,4025.48C2921.04,4023.15 2923.61,4021.98 2926.18,4021.98C2928.98,4021.98 2931.25,4023.56 2933,4026.71C2934.75,4029.86 2935.63,4033.65 2935.63,4038.08C2935.63,4042.51 2934.75,4046.83 2933,4051.03C2931.25,4055.23 2928.63,4058.73 2925.13,4061.53C2912.99,4071.56 2899.23,4076.58 2883.83,4076.58C2861.66,4076.58 2845.44,4067.31 2835.18,4048.76C2824.91,4030.21 2819.78,4006 2819.78,3976.13C2819.78,3965.86 2820.13,3955.48 2820.83,3944.98L2807.18,3944.98C2800.18,3944.98 2795.45,3943.7 2793,3941.13C2790.55,3938.56 2789.33,3934.48 2789.33,3928.88C2789.33,3915.81 2794.58,3909.28 2805.08,3909.28L2825.03,3909.28C2828.99,3883.61 2835.06,3860.16 2843.23,3838.93C2851.39,3817.7 2861.25,3800.78 2872.8,3788.18C2884.35,3775.58 2896.78,3769.28 2910.08,3769.28C2919.88,3769.28 2927.58,3773.6 2933.18,3782.23C2938.78,3790.86 2941.58,3801.71 2941.58,3814.78C2941.58,3850.95 2926.41,3882.45 2896.08,3909.28L2935.28,3909.28C2939.01,3909.28 2941.69,3910.1 2943.33,3911.73C2944.96,3913.36 2945.78,3916.4 2945.78,3920.83C2945.78,3936.93 2932.59,3944.98 2906.23,3944.98L2863.53,3944.98ZM2900.63,3802.88C2897.13,3802.88 2893.22,3807.26 2888.9,3816.01C2884.59,3824.76 2880.5,3836.89 2876.65,3852.41C2872.8,3867.92 2869.59,3885.13 2867.03,3904.03C2880.79,3892.13 2891.12,3878.77 2898,3863.96C2904.89,3849.14 2908.33,3835.66 2908.33,3823.53C2908.33,3809.76 2905.76,3802.88 2900.63,3802.88Z" style="fill:rgb(0,170,255);"/>
            </g>
        </g>
    </g>
    <g transform="matrix(1,0,0,1,-35,0)">
        <path d="M2581.56,4109.16C781.858,4138.68 897.286,2464.33 1503.84,1835.92C2237.6,1075.73 2353.13,715.059 2561.44,327.281C2561.44,327.281 2878.45,1081.77 3610.77,1840.48C4217.62,2469.19 4352.23,4080.12 2581.56,4109.16Z" style="fill:none;stroke:rgb(0,170,255);stroke-width:19.89px;stroke-dasharray:59.68,79.57,59.68,0;"/>
    </g>
    <g transform="matrix(1.369,0,0,1,-915.897,837.058)">
        <path d="M1489.61,2006.12C1592.24,1886.87 1731.62,1295.47 1757.02,1084.54C1767.36,998.618 1830.46,941.221 1829.62,979.93C1827.8,1063.29 1862.6,1393.37 1888.91,1398.72C1911.93,1403.4 1941.4,885.533 1963.63,761.501C1970.54,722.953 2039.27,604.472 2042.67,690.587C2062.38,1191.19 2073.68,1836.06 2133.48,1992.43C2179.29,2112.21 2021.5,2084.74 2025.45,1679.84C2027,1521.05 1998.6,1271.01 1999.09,1002.14C1999.34,865.459 1966.08,1224.94 1941.81,1384.21C1921.12,1519.97 1871.53,1610.18 1842.44,1449.58C1821.47,1333.76 1811.75,1205.95 1805.92,1222.73C1790.77,1266.33 1735.15,1602.58 1704.32,1724.88C1609.51,2100.96 1451.91,2049.93 1489.61,2006.12Z" style="fill:rgb(0,170,255);stroke:black;stroke-width:0.83px;"/>
    </g>
    <g transform="matrix(0.911414,0,0,1,-144.007,830.707)">
        <path d="M2269.76,619.466C2298.89,848.016 2325.05,1584.19 2361.12,1834.69C2372.03,1910.41 2381.93,1976.91 2417.56,2019.27C2466.71,2077.69 2574.84,2063.6 2622.09,2012.28C2718.76,1907.26 2633.29,572.336 2602.45,277.399C2595.87,214.458 2497.63,239.894 2500.83,310.973C2511.07,538.168 2566.62,1504.04 2572.54,1722.98C2578.37,1938.4 2461.34,1947.59 2438.2,1796.71C2410.41,1615.54 2368.66,1172.9 2378.21,595.225C2380.09,481.185 2252.23,481.895 2269.76,619.466Z" style="fill:rgb(0,170,255);stroke:black;stroke-width:1.05px;"/>
    </g>
    <g transform="matrix(0.967376,0,0,1.23308,-578.491,231.676)">
        <path d="M2976,2098.87C3041.07,1992 3011.28,931.75 2948.22,569.573C2938.69,514.885 3044.52,484.096 3053.45,554.456C3129.64,1154.49 3270.28,1537.29 3268.25,1520.25C3257.78,1432.59 3183.74,427.619 3158.13,280.899C3148.98,228.496 3273.08,216.171 3271.17,277.562C3268.59,360.371 3312.75,958.866 3321.78,1355.38C3329,1672.23 3396.03,2051.05 3450.61,2170.69C3485.99,2248.24 3368.33,2255.53 3346.98,2229.61C3272.23,2138.85 3235.85,1726.32 3207.92,1542.75C3195.68,1462.27 3114.91,1138.85 3093.79,1092.95C3060.91,1021.5 3159.55,1975.79 3098.31,2113.21C3077.46,2159.99 2927.12,2179.15 2976,2098.87Z" style="fill:rgb(0,170,255);stroke:black;stroke-width:0.9px;"/>
    </g>
    <g transform="matrix(0.672764,0,0,1.10328,722.545,545.114)">
        <path d="M3557.12,860.156C3625.26,1274.86 3731.67,1671.49 3738.06,1861.3C3742.77,2001.14 3851.94,2080.4 4037.34,2104.23C4161.13,2120.13 4340.77,2118.07 4456.65,2094.71C4565.68,2072.73 4708.42,2049.98 4748.98,1937.61C4804.68,1783.33 4322.1,1823.78 4276.72,1295.14C4271.85,1238.35 4164.55,1236.11 4172.9,1300.3C4216.95,1638.83 4373.31,1756.08 4476.58,1825.86C4526.5,1859.58 4556.77,1938.38 4526.56,1965.92C4455.93,2030.33 4188.08,2030.56 4026.83,1970.14C3797.91,1884.37 3786.51,1302.92 3732.08,894.562C3714.93,765.957 3542.49,771.114 3557.12,860.156Z" style="fill:rgb(0,170,255);stroke:black;stroke-width:1.09px;"/>
    </g>
    <g transform="matrix(1.25141,0,0,0.897046,-685.301,849.657)">
        <path d="M1503.62,2781.82C1477.96,2674.47 1502.41,2638.56 1447.18,2387.78C1427.41,2297.99 1525.11,2228.43 1599.43,2312.9C1694.47,2420.93 1740.53,2831.16 1786.78,2821.91C1827.1,2813.85 1848.95,2334.88 1892.52,2248.08C1938.16,2157.14 2046.13,2136.95 2034.75,2206.58C2005.39,2386.25 2173.34,3291.99 2110.07,3432.67C2067.42,3527.52 1914.87,3501.35 1990.69,3353.51C2079.25,3180.84 1974.78,2584.18 1953.72,2533.22C1932.66,2482.27 1852.24,3004.55 1822.84,3031.91C1807.14,3046.52 1769.17,3046.38 1758.64,3027.7C1726.81,2971.26 1584.87,2473.12 1574.69,2501.22C1517.54,2658.99 1626.53,2863.1 1606.05,2994.74C1600.32,3031.63 1521.65,2857.24 1503.62,2781.82Z" style="fill:rgb(0,170,255);stroke:black;stroke-width:0.92px;"/>
    </g>
    <g transform="matrix(1.14984,0,0,1.02447,-330.879,-70.9347)">
        <path d="M2043.78,3900.88C2089.97,3723.91 2035.9,3464.5 1977.34,3150.89C1928.31,2888.3 2572.49,2780.89 2579.72,3077.32C2593.23,3631.55 2674.9,3820.92 2670.5,3987.89C2669.18,4038.14 2571.45,4043.19 2541.63,3997.7C2498.6,3932.05 2502.54,3606.52 2478.64,3501.06C2475.53,3487.36 2173.96,3502.32 2163.94,3531.54C2138.96,3604.36 2202.79,3880.81 2170.23,3955.89C2129.02,4050.94 2010.15,4029.73 2043.78,3900.88ZM2115.95,3093.25C2193.4,2967.37 2375.44,2991.03 2422.01,3036.54C2468.58,3082.05 2474.86,3270.82 2479.68,3355.11C2480.71,3373.16 2478.79,3393.1 2454.78,3401.92C2406.93,3419.49 2232.55,3423.84 2183.76,3427.33C2126.36,3431.45 2132.88,3395.8 2131.28,3383.49C2122.91,3319.16 2081.07,3149.92 2115.95,3093.25Z" style="fill:rgb(0,170,255);stroke:black;stroke-width:0.92px;"/>
    </g>
    <g transform="matrix(0.740542,0,0,1.64153,493.127,-2722.89)">
        <path d="M3475.71,2626.23C3436.01,2546.1 3521.01,2425.31 3416.12,2469.2C3358.93,2493.12 3320.79,2427.04 3303.58,2377.75C3280.99,2313.05 3022.43,2254.37 2978.67,2378.1C2931.08,2512.64 2986.97,3176.02 3062.46,3339.42C3126.2,3477.37 3646.99,3404.97 3619.56,3323.7C3592.39,3243.25 3557.72,3245.12 3559.84,3184.33C3560.82,3156.32 3634.42,3185.75 3636.91,3166.34C3641.26,3132.53 3660.4,3120.94 3613.81,3101.01C3592.64,3091.95 3300.6,3077.66 3300.68,3121.97C3300.73,3146.53 3310.24,3159.2 3314.61,3169.77C3326.85,3199.39 3407.53,3173.39 3414.06,3187.46C3420.59,3201.53 3506.17,3292.01 3471.76,3309.08C3439.02,3325.33 3225.89,3337.41 3177.69,3262.37C3110.97,3158.51 3094.62,2727.74 3092.64,2632.14C3091.48,2575.73 3065.13,2469.48 3166.54,2469.7C3267.76,2469.93 3366.36,2570.01 3355.46,2618.76C3348.24,2651.05 3485.48,2645.95 3475.71,2626.23Z" style="fill:rgb(0,170,255);stroke:black;stroke-width:0.79px;"/>
    </g>
    <g transform="matrix(1,0,0,1.2656,-18.7433,-776.524)">
        <path d="M3094.19,2914.07C3252.13,2831.6 3433.27,2845.33 3341.88,2985.77C3242.24,3138.91 3338.87,3516.47 3304.92,3612.2C3259.03,3741.61 2952.52,3823.16 2850.56,3775.25C2781.58,3742.84 2823.45,3639.43 2754.82,3511.24C2708.86,3425.39 2920.71,3424.23 2944.02,3439.15C3010.24,3481.54 2853.83,3551.2 2946.62,3653.43C2989.36,3700.51 3159.87,3654.56 3163.43,3599.53C3163.74,3594.76 3156.02,3268.09 3119.15,3126.94C3064.75,2918.67 2809.6,3200.24 2807.16,3019.55C2805.66,2909.25 3008.95,2958.58 3094.19,2914.07Z" style="fill:rgb(0,170,255);"/>
    </g>
    <g transform="matrix(1,0,0,1.34464,-35,-1313.54)">
        <path d="M3519.55,3432.06C3608.04,3103.49 3408.07,3314.27 3401.03,3229.66C3399.18,3207.32 3402.15,3191.5 3407.31,3179.83C3444,3096.74 3571.77,3183.96 3777.9,3127.21C4051.8,3051.81 4036.86,3263.74 3849.91,3285.65C3635.77,3310.74 3574.91,3664.49 3733.13,3638.68C3821.38,3624.28 3677.38,3731.21 3594.33,3778.62C3510.76,3826.32 3413.08,3884.9 3375.36,3851.88C3349.2,3828.98 3335.62,3726.36 3404.19,3651.22C3464.83,3584.76 3511.71,3461.17 3519.55,3432.06Z" style="fill:rgb(0,170,255);"/>
    </g>
</svg>
